<mxfile host="app.diagrams.net" agent="Mozilla/5.0 (Windows NT 10.0; Win64; x64) AppleWebKit/537.36 (KHTML, like Gecko) Chrome/138.0.0.0 Safari/537.36" version="28.1.0" pages="2">
  <diagram name="Con el Software" id="p43_ynLGDn3kcRHDIgqx">
    <mxGraphModel grid="1" page="1" gridSize="10" guides="1" tooltips="1" connect="1" arrows="1" fold="1" pageScale="1" pageWidth="827" pageHeight="1169" math="0" shadow="0">
      <root>
        <mxCell id="0" />
        <mxCell id="1" parent="0" />
        <mxCell id="4m3ACshNDVlBQYN_gjH1-14" value="" style="group" connectable="0" vertex="1" parent="1">
          <mxGeometry x="-1220" y="-685" width="2480" height="1471.7716129032258" as="geometry" />
        </mxCell>
        <mxCell id="4m3ACshNDVlBQYN_gjH1-9" value="&lt;font style=&quot;font-size: 19px;&quot;&gt;MAPA DE PROCESOS BPMN - ZAAP / Software integrado&lt;/font&gt;" style="swimlane;childLayout=stackLayout;resizeParent=1;resizeParentMax=0;horizontal=1;startSize=20;horizontalStack=0;html=1;strokeWidth=3;strokeColor=#3399FF;" vertex="1" parent="4m3ACshNDVlBQYN_gjH1-14">
          <mxGeometry x="-50" y="-95" width="2530" height="1566.7716129032258" as="geometry">
            <mxRectangle width="60" height="30" as="alternateBounds" />
          </mxGeometry>
        </mxCell>
        <mxCell id="4m3ACshNDVlBQYN_gjH1-18" value="Administrador" style="swimlane;startSize=20;horizontal=0;html=1;strokeWidth=3;strokeColor=#3399FF;" vertex="1" parent="4m3ACshNDVlBQYN_gjH1-9">
          <mxGeometry y="20" width="2530" height="220" as="geometry" />
        </mxCell>
        <mxCell id="4m3ACshNDVlBQYN_gjH1-38" value="Revisar solicitud" style="rounded=0;whiteSpace=wrap;html=1;" vertex="1" parent="4m3ACshNDVlBQYN_gjH1-18">
          <mxGeometry x="90" y="65" width="100" height="50" as="geometry" />
        </mxCell>
        <mxCell id="4m3ACshNDVlBQYN_gjH1-34" value="&lt;font style=&quot;font-size: 10px;&quot;&gt;¿Fundación es aprobada?&lt;/font&gt;" style="rhombus;whiteSpace=wrap;html=1;align=center;" vertex="1" parent="4m3ACshNDVlBQYN_gjH1-18">
          <mxGeometry x="240" y="50" width="80" height="80" as="geometry" />
        </mxCell>
        <mxCell id="4m3ACshNDVlBQYN_gjH1-31" value="Solicitud rechazada" style="ellipse;whiteSpace=wrap;html=1;rounded=0;fillColor=#f8cecc;strokeColor=#b85450;" vertex="1" parent="4m3ACshNDVlBQYN_gjH1-18">
          <mxGeometry x="352.5" y="120" width="65" height="65" as="geometry" />
        </mxCell>
        <mxCell id="4m3ACshNDVlBQYN_gjH1-30" value="Crear cuenta de fundación" style="rounded=0;whiteSpace=wrap;html=1;" vertex="1" parent="4m3ACshNDVlBQYN_gjH1-18">
          <mxGeometry x="352.5" y="35" width="100" height="50" as="geometry" />
        </mxCell>
        <mxCell id="4m3ACshNDVlBQYN_gjH1-32" style="rounded=0;orthogonalLoop=1;jettySize=auto;html=1;exitX=0.5;exitY=0;exitDx=0;exitDy=0;edgeStyle=orthogonalEdgeStyle;entryX=0;entryY=0;entryDx=0;entryDy=0;" edge="1" parent="4m3ACshNDVlBQYN_gjH1-18" source="4m3ACshNDVlBQYN_gjH1-34" target="4m3ACshNDVlBQYN_gjH1-30">
          <mxGeometry relative="1" as="geometry">
            <mxPoint x="310" y="45" as="targetPoint" />
            <Array as="points">
              <mxPoint x="280" y="35" />
            </Array>
          </mxGeometry>
        </mxCell>
        <mxCell id="4m3ACshNDVlBQYN_gjH1-33" value="SI" style="edgeLabel;html=1;align=center;verticalAlign=middle;resizable=0;points=[];" connectable="0" vertex="1" parent="4m3ACshNDVlBQYN_gjH1-32">
          <mxGeometry x="-0.5455" relative="1" as="geometry">
            <mxPoint as="offset" />
          </mxGeometry>
        </mxCell>
        <mxCell id="4m3ACshNDVlBQYN_gjH1-35" style="rounded=0;orthogonalLoop=1;jettySize=auto;html=1;exitX=0.5;exitY=1;exitDx=0;exitDy=0;entryX=0;entryY=0.5;entryDx=0;entryDy=0;edgeStyle=orthogonalEdgeStyle;" edge="1" parent="4m3ACshNDVlBQYN_gjH1-18" source="4m3ACshNDVlBQYN_gjH1-34" target="4m3ACshNDVlBQYN_gjH1-31">
          <mxGeometry relative="1" as="geometry">
            <mxPoint x="340" y="155" as="targetPoint" />
          </mxGeometry>
        </mxCell>
        <mxCell id="4m3ACshNDVlBQYN_gjH1-36" value="NO" style="edgeLabel;html=1;align=center;verticalAlign=middle;resizable=0;points=[];" connectable="0" vertex="1" parent="4m3ACshNDVlBQYN_gjH1-35">
          <mxGeometry x="-0.3798" relative="1" as="geometry">
            <mxPoint as="offset" />
          </mxGeometry>
        </mxCell>
        <mxCell id="4m3ACshNDVlBQYN_gjH1-37" style="edgeStyle=orthogonalEdgeStyle;rounded=0;orthogonalLoop=1;jettySize=auto;html=1;exitX=1;exitY=0.5;exitDx=0;exitDy=0;entryX=0;entryY=0.5;entryDx=0;entryDy=0;" edge="1" parent="4m3ACshNDVlBQYN_gjH1-18" source="4m3ACshNDVlBQYN_gjH1-38" target="4m3ACshNDVlBQYN_gjH1-34">
          <mxGeometry relative="1" as="geometry" />
        </mxCell>
        <mxCell id="Q53dCeY0tgMNh7afVajs-122" value="Generar reportes estadísticos" style="whiteSpace=wrap;html=1;rounded=0;" vertex="1" parent="4m3ACshNDVlBQYN_gjH1-18">
          <mxGeometry x="2139" y="76" width="120" height="60" as="geometry" />
        </mxCell>
        <mxCell id="Q53dCeY0tgMNh7afVajs-137" style="edgeStyle=none;curved=1;rounded=0;orthogonalLoop=1;jettySize=auto;html=1;exitX=1;exitY=0.5;exitDx=0;exitDy=0;entryX=0;entryY=0.5;entryDx=0;entryDy=0;fontSize=12;startSize=8;endSize=8;" edge="1" parent="4m3ACshNDVlBQYN_gjH1-18" source="Q53dCeY0tgMNh7afVajs-133" target="Q53dCeY0tgMNh7afVajs-136">
          <mxGeometry relative="1" as="geometry" />
        </mxCell>
        <mxCell id="Q53dCeY0tgMNh7afVajs-133" value="Atender solicitud de soporte" style="whiteSpace=wrap;html=1;rounded=0;" vertex="1" parent="4m3ACshNDVlBQYN_gjH1-18">
          <mxGeometry x="939" y="70" width="120" height="60" as="geometry" />
        </mxCell>
        <mxCell id="Q53dCeY0tgMNh7afVajs-139" style="edgeStyle=none;curved=1;rounded=0;orthogonalLoop=1;jettySize=auto;html=1;exitX=1;exitY=0.5;exitDx=0;exitDy=0;fontSize=12;startSize=8;endSize=8;entryX=0;entryY=0.5;entryDx=0;entryDy=0;" edge="1" parent="4m3ACshNDVlBQYN_gjH1-18" source="Q53dCeY0tgMNh7afVajs-136" target="Q53dCeY0tgMNh7afVajs-140">
          <mxGeometry relative="1" as="geometry">
            <mxPoint x="1354" y="97.59523809523807" as="targetPoint" />
            <mxPoint x="1239" y="97.5" as="sourcePoint" />
          </mxGeometry>
        </mxCell>
        <mxCell id="Q53dCeY0tgMNh7afVajs-141" value="SI" style="edgeLabel;html=1;align=center;verticalAlign=middle;resizable=0;points=[];fontSize=12;" connectable="0" vertex="1" parent="Q53dCeY0tgMNh7afVajs-139">
          <mxGeometry x="0.0732" relative="1" as="geometry">
            <mxPoint as="offset" />
          </mxGeometry>
        </mxCell>
        <mxCell id="Q53dCeY0tgMNh7afVajs-142" style="edgeStyle=orthogonalEdgeStyle;rounded=0;orthogonalLoop=1;jettySize=auto;html=1;exitX=0.5;exitY=1;exitDx=0;exitDy=0;fontSize=12;startSize=8;endSize=8;entryX=0.5;entryY=1;entryDx=0;entryDy=0;" edge="1" parent="4m3ACshNDVlBQYN_gjH1-18" source="Q53dCeY0tgMNh7afVajs-136" target="Q53dCeY0tgMNh7afVajs-133">
          <mxGeometry relative="1" as="geometry">
            <mxPoint x="1299" y="140.1428571428571" as="targetPoint" />
          </mxGeometry>
        </mxCell>
        <mxCell id="Q53dCeY0tgMNh7afVajs-143" value="NO" style="edgeLabel;html=1;align=center;verticalAlign=middle;resizable=0;points=[];fontSize=12;" connectable="0" vertex="1" parent="Q53dCeY0tgMNh7afVajs-142">
          <mxGeometry x="0.0014" relative="1" as="geometry">
            <mxPoint as="offset" />
          </mxGeometry>
        </mxCell>
        <mxCell id="Q53dCeY0tgMNh7afVajs-136" value="¿Solucionó solicitud?" style="rhombus;whiteSpace=wrap;html=1;rounded=0;" vertex="1" parent="4m3ACshNDVlBQYN_gjH1-18">
          <mxGeometry x="1129" y="60" width="110" height="80" as="geometry" />
        </mxCell>
        <mxCell id="Q53dCeY0tgMNh7afVajs-140" value="Fin" style="ellipse;whiteSpace=wrap;html=1;fillColor=#f8cecc;strokeColor=#b85450;" vertex="1" parent="4m3ACshNDVlBQYN_gjH1-18">
          <mxGeometry x="1354" y="87.5" width="31" height="25" as="geometry" />
        </mxCell>
        <mxCell id="Q53dCeY0tgMNh7afVajs-150" value="Reporte generado" style="ellipse;whiteSpace=wrap;html=1;fillColor=#f8cecc;strokeColor=#b85450;" vertex="1" parent="4m3ACshNDVlBQYN_gjH1-18">
          <mxGeometry x="1949" y="76" width="70" height="60" as="geometry" />
        </mxCell>
        <mxCell id="Q53dCeY0tgMNh7afVajs-151" style="edgeStyle=none;curved=1;rounded=0;orthogonalLoop=1;jettySize=auto;html=1;exitX=0;exitY=0.5;exitDx=0;exitDy=0;entryX=0.955;entryY=0.485;entryDx=0;entryDy=0;entryPerimeter=0;fontSize=12;startSize=8;endSize=8;" edge="1" parent="4m3ACshNDVlBQYN_gjH1-18" source="Q53dCeY0tgMNh7afVajs-122" target="Q53dCeY0tgMNh7afVajs-150">
          <mxGeometry relative="1" as="geometry" />
        </mxCell>
        <mxCell id="4m3ACshNDVlBQYN_gjH1-10" value="Fundación" style="swimlane;startSize=20;horizontal=0;html=1;strokeWidth=3;strokeColor=#3399FF;" vertex="1" parent="4m3ACshNDVlBQYN_gjH1-9">
          <mxGeometry y="240" width="2530" height="630" as="geometry" />
        </mxCell>
        <mxCell id="4m3ACshNDVlBQYN_gjH1-39" value="Enviar solicitud de registro al sistema" style="ellipse;whiteSpace=wrap;html=1;rounded=0;fillColor=#d5e8d4;strokeColor=#82b366;container=0;" vertex="1" parent="4m3ACshNDVlBQYN_gjH1-10">
          <mxGeometry x="30" y="61.86" width="80" height="79.5" as="geometry" />
        </mxCell>
        <mxCell id="4m3ACshNDVlBQYN_gjH1-54" value="" style="edgeStyle=orthogonalEdgeStyle;rounded=0;orthogonalLoop=1;jettySize=auto;html=1;exitX=0.5;exitY=1;exitDx=0;exitDy=0;entryX=0;entryY=0.5;entryDx=0;entryDy=0;" edge="1" parent="4m3ACshNDVlBQYN_gjH1-10" source="4m3ACshNDVlBQYN_gjH1-43" target="4m3ACshNDVlBQYN_gjH1-53">
          <mxGeometry relative="1" as="geometry">
            <mxPoint x="340" y="166" as="targetPoint" />
          </mxGeometry>
        </mxCell>
        <mxCell id="Q53dCeY0tgMNh7afVajs-7" style="edgeStyle=orthogonalEdgeStyle;rounded=0;orthogonalLoop=1;jettySize=auto;html=1;exitX=1;exitY=1;exitDx=0;exitDy=0;entryX=0;entryY=0.25;entryDx=0;entryDy=0;fontSize=12;startSize=8;endSize=8;" edge="1" parent="4m3ACshNDVlBQYN_gjH1-10" source="4m3ACshNDVlBQYN_gjH1-43" target="4m3ACshNDVlBQYN_gjH1-76">
          <mxGeometry relative="1" as="geometry" />
        </mxCell>
        <mxCell id="Q53dCeY0tgMNh7afVajs-29" style="edgeStyle=none;curved=1;rounded=0;orthogonalLoop=1;jettySize=auto;html=1;exitX=1;exitY=1;exitDx=0;exitDy=0;fontSize=12;startSize=8;endSize=8;entryX=0;entryY=0.5;entryDx=0;entryDy=0;" edge="1" parent="4m3ACshNDVlBQYN_gjH1-10" source="4m3ACshNDVlBQYN_gjH1-43" target="Q53dCeY0tgMNh7afVajs-30">
          <mxGeometry relative="1" as="geometry">
            <mxPoint x="1301" y="113.5" as="targetPoint" />
            <mxPoint x="259" y="114.11000000000013" as="sourcePoint" />
          </mxGeometry>
        </mxCell>
        <mxCell id="Q53dCeY0tgMNh7afVajs-134" style="rounded=0;orthogonalLoop=1;jettySize=auto;html=1;exitX=1;exitY=0;exitDx=0;exitDy=0;entryX=0;entryY=0.5;entryDx=0;entryDy=0;fontSize=12;startSize=8;endSize=8;" edge="1" parent="4m3ACshNDVlBQYN_gjH1-10" source="4m3ACshNDVlBQYN_gjH1-43" target="Q53dCeY0tgMNh7afVajs-124">
          <mxGeometry relative="1" as="geometry" />
        </mxCell>
        <mxCell id="4m3ACshNDVlBQYN_gjH1-43" value="&lt;div&gt;&lt;span style=&quot;background-color: transparent; color: light-dark(rgb(0, 0, 0), rgb(255, 255, 255));&quot;&gt;Iniciar sesión&lt;/span&gt;&lt;/div&gt;" style="rounded=0;whiteSpace=wrap;html=1;" vertex="1" parent="4m3ACshNDVlBQYN_gjH1-10">
          <mxGeometry x="160" y="76.61000000000001" width="100" height="50" as="geometry" />
        </mxCell>
        <mxCell id="4m3ACshNDVlBQYN_gjH1-71" value="" style="edgeStyle=orthogonalEdgeStyle;rounded=0;orthogonalLoop=1;jettySize=auto;html=1;" edge="1" parent="4m3ACshNDVlBQYN_gjH1-10" source="4m3ACshNDVlBQYN_gjH1-53" target="4m3ACshNDVlBQYN_gjH1-70">
          <mxGeometry relative="1" as="geometry" />
        </mxCell>
        <mxCell id="4m3ACshNDVlBQYN_gjH1-53" value="Revisar y aceptar alertas de rescate" style="rounded=0;whiteSpace=wrap;html=1;" vertex="1" parent="4m3ACshNDVlBQYN_gjH1-10">
          <mxGeometry x="400" y="543.61" width="100" height="50" as="geometry" />
        </mxCell>
        <mxCell id="4m3ACshNDVlBQYN_gjH1-75" value="" style="edgeStyle=orthogonalEdgeStyle;rounded=0;orthogonalLoop=1;jettySize=auto;html=1;" edge="1" parent="4m3ACshNDVlBQYN_gjH1-10" source="4m3ACshNDVlBQYN_gjH1-70" target="4m3ACshNDVlBQYN_gjH1-74">
          <mxGeometry relative="1" as="geometry" />
        </mxCell>
        <mxCell id="4m3ACshNDVlBQYN_gjH1-70" value="Rescatar el animal reportado" style="rounded=0;whiteSpace=wrap;html=1;" vertex="1" parent="4m3ACshNDVlBQYN_gjH1-10">
          <mxGeometry x="530" y="543.61" width="100" height="50" as="geometry" />
        </mxCell>
        <mxCell id="4m3ACshNDVlBQYN_gjH1-81" style="edgeStyle=orthogonalEdgeStyle;rounded=0;orthogonalLoop=1;jettySize=auto;html=1;exitX=0.5;exitY=0;exitDx=0;exitDy=0;entryX=0.5;entryY=1;entryDx=0;entryDy=0;" edge="1" parent="4m3ACshNDVlBQYN_gjH1-10" source="4m3ACshNDVlBQYN_gjH1-74" target="4m3ACshNDVlBQYN_gjH1-80">
          <mxGeometry relative="1" as="geometry" />
        </mxCell>
        <mxCell id="4m3ACshNDVlBQYN_gjH1-74" value="Registrar animal rescatado" style="rounded=0;whiteSpace=wrap;html=1;" vertex="1" parent="4m3ACshNDVlBQYN_gjH1-10">
          <mxGeometry x="660" y="543.61" width="100" height="50" as="geometry" />
        </mxCell>
        <mxCell id="Q53dCeY0tgMNh7afVajs-17" value="" style="edgeStyle=none;curved=1;rounded=0;orthogonalLoop=1;jettySize=auto;html=1;fontSize=12;startSize=8;endSize=8;" edge="1" parent="4m3ACshNDVlBQYN_gjH1-10" source="4m3ACshNDVlBQYN_gjH1-76" target="Q53dCeY0tgMNh7afVajs-16">
          <mxGeometry relative="1" as="geometry" />
        </mxCell>
        <mxCell id="Q53dCeY0tgMNh7afVajs-115" style="edgeStyle=orthogonalEdgeStyle;rounded=0;orthogonalLoop=1;jettySize=auto;html=1;exitX=0.5;exitY=0;exitDx=0;exitDy=0;entryX=0;entryY=1;entryDx=0;entryDy=0;fontSize=12;startSize=8;endSize=8;" edge="1" parent="4m3ACshNDVlBQYN_gjH1-10" source="4m3ACshNDVlBQYN_gjH1-76" target="Q53dCeY0tgMNh7afVajs-30">
          <mxGeometry relative="1" as="geometry">
            <Array as="points">
              <mxPoint x="1040" y="149" />
            </Array>
          </mxGeometry>
        </mxCell>
        <mxCell id="4m3ACshNDVlBQYN_gjH1-76" value="&lt;div&gt;Publicar animales disponibles&lt;/div&gt;&lt;div&gt;en adopción&lt;/div&gt;" style="rounded=0;whiteSpace=wrap;html=1;fillColor=none;strokeColor=#000000;" vertex="1" parent="4m3ACshNDVlBQYN_gjH1-10">
          <mxGeometry x="990" y="272.86" width="100" height="50" as="geometry" />
        </mxCell>
        <mxCell id="4m3ACshNDVlBQYN_gjH1-83" value="" style="edgeStyle=orthogonalEdgeStyle;rounded=0;orthogonalLoop=1;jettySize=auto;html=1;" edge="1" parent="4m3ACshNDVlBQYN_gjH1-10" source="4m3ACshNDVlBQYN_gjH1-80" target="4m3ACshNDVlBQYN_gjH1-82">
          <mxGeometry relative="1" as="geometry" />
        </mxCell>
        <mxCell id="4m3ACshNDVlBQYN_gjH1-84" value="SI" style="edgeLabel;html=1;align=center;verticalAlign=middle;resizable=0;points=[];" connectable="0" vertex="1" parent="4m3ACshNDVlBQYN_gjH1-83">
          <mxGeometry x="-0.0478" y="1" relative="1" as="geometry">
            <mxPoint as="offset" />
          </mxGeometry>
        </mxCell>
        <mxCell id="Q53dCeY0tgMNh7afVajs-2" style="edgeStyle=orthogonalEdgeStyle;rounded=0;orthogonalLoop=1;jettySize=auto;html=1;exitX=0.5;exitY=0;exitDx=0;exitDy=0;fontSize=12;startSize=8;endSize=8;entryX=0;entryY=0.75;entryDx=0;entryDy=0;" edge="1" parent="4m3ACshNDVlBQYN_gjH1-10" source="4m3ACshNDVlBQYN_gjH1-80" target="4m3ACshNDVlBQYN_gjH1-76">
          <mxGeometry relative="1" as="geometry">
            <mxPoint x="1010" y="321" as="targetPoint" />
            <Array as="points">
              <mxPoint x="710" y="311" />
              <mxPoint x="880" y="311" />
            </Array>
          </mxGeometry>
        </mxCell>
        <mxCell id="Q53dCeY0tgMNh7afVajs-6" value="NO" style="edgeLabel;html=1;align=center;verticalAlign=middle;resizable=0;points=[];fontSize=12;" connectable="0" vertex="1" parent="Q53dCeY0tgMNh7afVajs-2">
          <mxGeometry x="-0.855" y="2" relative="1" as="geometry">
            <mxPoint as="offset" />
          </mxGeometry>
        </mxCell>
        <mxCell id="4m3ACshNDVlBQYN_gjH1-80" value="¿Tiene complicaciones médicas?" style="rhombus;whiteSpace=wrap;html=1;rounded=0;" vertex="1" parent="4m3ACshNDVlBQYN_gjH1-10">
          <mxGeometry x="660" y="431" width="100" height="80" as="geometry" />
        </mxCell>
        <mxCell id="4m3ACshNDVlBQYN_gjH1-88" value="" style="edgeStyle=orthogonalEdgeStyle;rounded=0;orthogonalLoop=1;jettySize=auto;html=1;" edge="1" parent="4m3ACshNDVlBQYN_gjH1-10" source="4m3ACshNDVlBQYN_gjH1-82" target="4m3ACshNDVlBQYN_gjH1-87">
          <mxGeometry relative="1" as="geometry" />
        </mxCell>
        <mxCell id="4m3ACshNDVlBQYN_gjH1-82" value="Revisar con un veterinario y control de salud" style="whiteSpace=wrap;html=1;rounded=0;" vertex="1" parent="4m3ACshNDVlBQYN_gjH1-10">
          <mxGeometry x="820" y="448.5" width="90" height="45" as="geometry" />
        </mxCell>
        <mxCell id="4m3ACshNDVlBQYN_gjH1-89" style="edgeStyle=orthogonalEdgeStyle;rounded=0;orthogonalLoop=1;jettySize=auto;html=1;exitX=0.5;exitY=1;exitDx=0;exitDy=0;entryX=0;entryY=1;entryDx=0;entryDy=0;" edge="1" parent="4m3ACshNDVlBQYN_gjH1-10" source="4m3ACshNDVlBQYN_gjH1-87" target="4m3ACshNDVlBQYN_gjH1-76">
          <mxGeometry relative="1" as="geometry">
            <Array as="points">
              <mxPoint x="990" y="591" />
            </Array>
          </mxGeometry>
        </mxCell>
        <mxCell id="4m3ACshNDVlBQYN_gjH1-90" value="SI" style="edgeLabel;html=1;align=center;verticalAlign=middle;resizable=0;points=[];" connectable="0" vertex="1" parent="4m3ACshNDVlBQYN_gjH1-89">
          <mxGeometry x="-0.6478" relative="1" as="geometry">
            <mxPoint as="offset" />
          </mxGeometry>
        </mxCell>
        <mxCell id="4m3ACshNDVlBQYN_gjH1-91" style="edgeStyle=orthogonalEdgeStyle;rounded=0;orthogonalLoop=1;jettySize=auto;html=1;exitX=1;exitY=0.5;exitDx=0;exitDy=0;entryX=1;entryY=0.5;entryDx=0;entryDy=0;" edge="1" parent="4m3ACshNDVlBQYN_gjH1-10" source="4m3ACshNDVlBQYN_gjH1-87" target="4m3ACshNDVlBQYN_gjH1-82">
          <mxGeometry relative="1" as="geometry">
            <Array as="points">
              <mxPoint x="960" y="552" />
              <mxPoint x="960" y="471" />
            </Array>
          </mxGeometry>
        </mxCell>
        <mxCell id="Q53dCeY0tgMNh7afVajs-1" value="NO" style="edgeLabel;html=1;align=center;verticalAlign=middle;resizable=0;points=[];fontSize=12;" connectable="0" vertex="1" parent="4m3ACshNDVlBQYN_gjH1-91">
          <mxGeometry x="0.0435" y="1" relative="1" as="geometry">
            <mxPoint as="offset" />
          </mxGeometry>
        </mxCell>
        <mxCell id="4m3ACshNDVlBQYN_gjH1-87" value="¿Mejoró su condición?" style="rhombus;whiteSpace=wrap;html=1;rounded=0;" vertex="1" parent="4m3ACshNDVlBQYN_gjH1-10">
          <mxGeometry x="825" y="513.61" width="80" height="77.39" as="geometry" />
        </mxCell>
        <mxCell id="Q53dCeY0tgMNh7afVajs-19" value="" style="rounded=0;orthogonalLoop=1;jettySize=auto;html=1;fontSize=12;startSize=8;endSize=8;exitX=0.5;exitY=1;exitDx=0;exitDy=0;entryX=0;entryY=0.5;entryDx=0;entryDy=0;edgeStyle=orthogonalEdgeStyle;elbow=vertical;" edge="1" parent="4m3ACshNDVlBQYN_gjH1-10" source="Q53dCeY0tgMNh7afVajs-16" target="Q53dCeY0tgMNh7afVajs-20">
          <mxGeometry relative="1" as="geometry">
            <mxPoint x="1190" y="317.8600000000001" as="sourcePoint" />
            <mxPoint x="1110.0285714285715" y="394" as="targetPoint" />
          </mxGeometry>
        </mxCell>
        <mxCell id="Q53dCeY0tgMNh7afVajs-27" value="NO" style="edgeLabel;html=1;align=center;verticalAlign=middle;resizable=0;points=[];fontSize=12;" connectable="0" vertex="1" parent="Q53dCeY0tgMNh7afVajs-19">
          <mxGeometry x="0.2277" relative="1" as="geometry">
            <mxPoint x="4" as="offset" />
          </mxGeometry>
        </mxCell>
        <mxCell id="Q53dCeY0tgMNh7afVajs-23" style="edgeStyle=orthogonalEdgeStyle;rounded=0;orthogonalLoop=1;jettySize=auto;html=1;exitX=0.5;exitY=1;exitDx=0;exitDy=0;entryX=0;entryY=0.5;entryDx=0;entryDy=0;fontSize=12;startSize=8;endSize=8;" edge="1" parent="4m3ACshNDVlBQYN_gjH1-10" source="Q53dCeY0tgMNh7afVajs-16" target="Q53dCeY0tgMNh7afVajs-22">
          <mxGeometry relative="1" as="geometry" />
        </mxCell>
        <mxCell id="Q53dCeY0tgMNh7afVajs-24" value="SI" style="edgeLabel;html=1;align=center;verticalAlign=middle;resizable=0;points=[];fontSize=12;" connectable="0" vertex="1" parent="Q53dCeY0tgMNh7afVajs-23">
          <mxGeometry x="0.5122" y="1" relative="1" as="geometry">
            <mxPoint x="11" as="offset" />
          </mxGeometry>
        </mxCell>
        <mxCell id="Q53dCeY0tgMNh7afVajs-16" value="¿Solicitud aprobada?" style="rhombus;whiteSpace=wrap;html=1;rounded=0;" vertex="1" parent="4m3ACshNDVlBQYN_gjH1-10">
          <mxGeometry x="1160" y="257.86" width="80" height="80" as="geometry" />
        </mxCell>
        <mxCell id="Q53dCeY0tgMNh7afVajs-20" value="Fin" style="ellipse;whiteSpace=wrap;html=1;rounded=0;fillColor=#f8cecc;strokeColor=#b85450;" vertex="1" parent="4m3ACshNDVlBQYN_gjH1-10">
          <mxGeometry x="1260" y="362" width="30" height="30" as="geometry" />
        </mxCell>
        <mxCell id="Q53dCeY0tgMNh7afVajs-22" value="Coordinar entrega" style="ellipse;whiteSpace=wrap;html=1;rounded=0;fillColor=#f8cecc;strokeColor=#b85450;" vertex="1" parent="4m3ACshNDVlBQYN_gjH1-10">
          <mxGeometry x="1253" y="431" width="65" height="65" as="geometry" />
        </mxCell>
        <mxCell id="Q53dCeY0tgMNh7afVajs-128" style="edgeStyle=none;curved=1;rounded=0;orthogonalLoop=1;jettySize=auto;html=1;exitX=0.5;exitY=1;exitDx=0;exitDy=0;entryX=0.5;entryY=0;entryDx=0;entryDy=0;fontSize=12;startSize=8;endSize=8;" edge="1" parent="4m3ACshNDVlBQYN_gjH1-10" source="Q53dCeY0tgMNh7afVajs-30" target="Q53dCeY0tgMNh7afVajs-127">
          <mxGeometry relative="1" as="geometry" />
        </mxCell>
        <mxCell id="Q53dCeY0tgMNh7afVajs-30" value="Crear campaña o evento" style="whiteSpace=wrap;html=1;rounded=0;" vertex="1" parent="4m3ACshNDVlBQYN_gjH1-10">
          <mxGeometry x="1363" y="104.00000000000001" width="90" height="45" as="geometry" />
        </mxCell>
        <mxCell id="Q53dCeY0tgMNh7afVajs-117" style="edgeStyle=none;curved=1;rounded=0;orthogonalLoop=1;jettySize=auto;html=1;exitX=1;exitY=0.5;exitDx=0;exitDy=0;entryX=0;entryY=0.5;entryDx=0;entryDy=0;fontSize=12;startSize=8;endSize=8;" edge="1" parent="4m3ACshNDVlBQYN_gjH1-10" source="Q53dCeY0tgMNh7afVajs-107" target="Q53dCeY0tgMNh7afVajs-114">
          <mxGeometry relative="1" as="geometry" />
        </mxCell>
        <mxCell id="Q53dCeY0tgMNh7afVajs-107" value="Registrar uso de fondos" style="whiteSpace=wrap;html=1;rounded=0;" vertex="1" parent="4m3ACshNDVlBQYN_gjH1-10">
          <mxGeometry x="2138.995" y="247" width="120" height="60" as="geometry" />
        </mxCell>
        <mxCell id="Q53dCeY0tgMNh7afVajs-153" style="edgeStyle=none;curved=1;rounded=0;orthogonalLoop=1;jettySize=auto;html=1;exitX=0.5;exitY=0;exitDx=0;exitDy=0;entryX=0.5;entryY=1;entryDx=0;entryDy=0;fontSize=12;startSize=8;endSize=8;" edge="1" parent="4m3ACshNDVlBQYN_gjH1-10" source="Q53dCeY0tgMNh7afVajs-114" target="Q53dCeY0tgMNh7afVajs-152">
          <mxGeometry relative="1" as="geometry" />
        </mxCell>
        <mxCell id="Q53dCeY0tgMNh7afVajs-114" value="Subir comprobantes (Fotos, facturas)" style="whiteSpace=wrap;html=1;rounded=0;" vertex="1" parent="4m3ACshNDVlBQYN_gjH1-10">
          <mxGeometry x="2329" y="247" width="120" height="60" as="geometry" />
        </mxCell>
        <mxCell id="Q53dCeY0tgMNh7afVajs-131" style="edgeStyle=none;curved=1;rounded=0;orthogonalLoop=1;jettySize=auto;html=1;exitX=1;exitY=0.5;exitDx=0;exitDy=0;entryX=0;entryY=0.5;entryDx=0;entryDy=0;fontSize=12;startSize=8;endSize=8;" edge="1" parent="4m3ACshNDVlBQYN_gjH1-10" source="Q53dCeY0tgMNh7afVajs-127" target="Q53dCeY0tgMNh7afVajs-130">
          <mxGeometry relative="1" as="geometry" />
        </mxCell>
        <mxCell id="Q53dCeY0tgMNh7afVajs-132" value="NO" style="edgeLabel;html=1;align=center;verticalAlign=middle;resizable=0;points=[];fontSize=12;" connectable="0" vertex="1" parent="Q53dCeY0tgMNh7afVajs-131">
          <mxGeometry x="-0.3217" relative="1" as="geometry">
            <mxPoint as="offset" />
          </mxGeometry>
        </mxCell>
        <mxCell id="Q53dCeY0tgMNh7afVajs-127" value="¿Continua la disponibilidad?" style="rhombus;whiteSpace=wrap;html=1;rounded=0;" vertex="1" parent="4m3ACshNDVlBQYN_gjH1-10">
          <mxGeometry x="1353" y="227" width="110" height="80" as="geometry" />
        </mxCell>
        <mxCell id="Q53dCeY0tgMNh7afVajs-130" value="Se cancela" style="ellipse;whiteSpace=wrap;html=1;rounded=0;fillColor=#f8cecc;strokeColor=#b85450;" vertex="1" parent="4m3ACshNDVlBQYN_gjH1-10">
          <mxGeometry x="1509" y="242.25" width="51" height="49.5" as="geometry" />
        </mxCell>
        <mxCell id="Q53dCeY0tgMNh7afVajs-124" value="Solicitar soporte de sistema" style="whiteSpace=wrap;html=1;rounded=0;" vertex="1" parent="4m3ACshNDVlBQYN_gjH1-10">
          <mxGeometry x="759" y="48" width="120" height="60" as="geometry" />
        </mxCell>
        <mxCell id="Q53dCeY0tgMNh7afVajs-152" value="Seguimiento finalizado" style="ellipse;whiteSpace=wrap;html=1;rounded=0;fillColor=#f8cecc;strokeColor=#b85450;" vertex="1" parent="4m3ACshNDVlBQYN_gjH1-10">
          <mxGeometry x="2353.5" y="110" width="71" height="66" as="geometry" />
        </mxCell>
        <mxCell id="4m3ACshNDVlBQYN_gjH1-11" value="Voluntario" style="swimlane;startSize=20;horizontal=0;html=1;strokeWidth=3;strokeColor=#3399FF;" vertex="1" parent="4m3ACshNDVlBQYN_gjH1-9">
          <mxGeometry y="870" width="2530" height="203.22580645161287" as="geometry" />
        </mxCell>
        <mxCell id="4m3ACshNDVlBQYN_gjH1-45" value="Seleccionar registro a postulación voluntario" style="rounded=0;whiteSpace=wrap;html=1;" vertex="1" parent="4m3ACshNDVlBQYN_gjH1-11">
          <mxGeometry x="600" y="65.61" width="120" height="50" as="geometry" />
        </mxCell>
        <mxCell id="Q53dCeY0tgMNh7afVajs-65" value="Inscribir a evento&lt;br&gt;(Formulario)" style="whiteSpace=wrap;html=1;rounded=0;" vertex="1" parent="4m3ACshNDVlBQYN_gjH1-11">
          <mxGeometry x="1538.9950000000001" y="60.61" width="120" height="60" as="geometry" />
        </mxCell>
        <mxCell id="Q53dCeY0tgMNh7afVajs-84" value="Asignar tareas disponibles a voluntario" style="whiteSpace=wrap;html=1;rounded=0;" vertex="1" parent="4m3ACshNDVlBQYN_gjH1-11">
          <mxGeometry x="1599" y="-179" width="120" height="60" as="geometry" />
        </mxCell>
        <mxCell id="Q53dCeY0tgMNh7afVajs-85" value="" style="rounded=0;orthogonalLoop=1;jettySize=auto;html=1;fontSize=12;startSize=8;endSize=8;exitX=0.5;exitY=1;exitDx=0;exitDy=0;entryX=0;entryY=0.5;entryDx=0;entryDy=0;edgeStyle=orthogonalEdgeStyle;" edge="1" parent="4m3ACshNDVlBQYN_gjH1-11" source="Q53dCeY0tgMNh7afVajs-87" target="Q53dCeY0tgMNh7afVajs-88">
          <mxGeometry relative="1" as="geometry">
            <mxPoint x="1869" y="177" as="targetPoint" />
            <mxPoint x="1840.9972491950125" y="45.69202331937112" as="sourcePoint" />
          </mxGeometry>
        </mxCell>
        <mxCell id="Q53dCeY0tgMNh7afVajs-86" value="SI" style="edgeLabel;html=1;align=center;verticalAlign=middle;resizable=0;points=[];fontSize=12;" connectable="0" vertex="1" parent="Q53dCeY0tgMNh7afVajs-85">
          <mxGeometry x="-0.2082" y="-1" relative="1" as="geometry">
            <mxPoint as="offset" />
          </mxGeometry>
        </mxCell>
        <mxCell id="Q53dCeY0tgMNh7afVajs-96" style="edgeStyle=none;curved=1;rounded=0;orthogonalLoop=1;jettySize=auto;html=1;exitX=1;exitY=0.5;exitDx=0;exitDy=0;entryX=0;entryY=0.5;entryDx=0;entryDy=0;fontSize=12;startSize=8;endSize=8;" edge="1" parent="4m3ACshNDVlBQYN_gjH1-11" source="Q53dCeY0tgMNh7afVajs-87" target="Q53dCeY0tgMNh7afVajs-95">
          <mxGeometry relative="1" as="geometry" />
        </mxCell>
        <mxCell id="Q53dCeY0tgMNh7afVajs-97" value="NO" style="edgeLabel;html=1;align=center;verticalAlign=middle;resizable=0;points=[];fontSize=12;" connectable="0" vertex="1" parent="Q53dCeY0tgMNh7afVajs-96">
          <mxGeometry x="-0.0196" y="1" relative="1" as="geometry">
            <mxPoint as="offset" />
          </mxGeometry>
        </mxCell>
        <mxCell id="Q53dCeY0tgMNh7afVajs-87" value="¿Acepta la tarea asignada?" style="rhombus;whiteSpace=wrap;html=1;rounded=0;" vertex="1" parent="4m3ACshNDVlBQYN_gjH1-11">
          <mxGeometry x="1691" y="36.61" width="121" height="89" as="geometry" />
        </mxCell>
        <mxCell id="Q53dCeY0tgMNh7afVajs-88" value="Coordinar&lt;br&gt;disponibilidad" style="ellipse;whiteSpace=wrap;html=1;rounded=0;fillColor=#f8cecc;strokeColor=#b85450;" vertex="1" parent="4m3ACshNDVlBQYN_gjH1-11">
          <mxGeometry x="1803" y="125.60999999999999" width="81" height="69.39" as="geometry" />
        </mxCell>
        <mxCell id="Q53dCeY0tgMNh7afVajs-89" style="edgeStyle=orthogonalEdgeStyle;rounded=0;orthogonalLoop=1;jettySize=auto;html=1;exitX=0.25;exitY=0;exitDx=0;exitDy=0;entryX=0;entryY=0.5;entryDx=0;entryDy=0;fontSize=12;startSize=8;endSize=8;" edge="1" parent="4m3ACshNDVlBQYN_gjH1-11" source="Q53dCeY0tgMNh7afVajs-65" target="Q53dCeY0tgMNh7afVajs-84">
          <mxGeometry relative="1" as="geometry">
            <mxPoint x="1659" y="63.389999999999986" as="sourcePoint" />
          </mxGeometry>
        </mxCell>
        <mxCell id="Q53dCeY0tgMNh7afVajs-90" style="edgeStyle=orthogonalEdgeStyle;rounded=0;orthogonalLoop=1;jettySize=auto;html=1;exitX=0.5;exitY=1;exitDx=0;exitDy=0;entryX=0.5;entryY=0;entryDx=0;entryDy=0;fontSize=12;startSize=8;endSize=8;" edge="1" parent="4m3ACshNDVlBQYN_gjH1-11" source="Q53dCeY0tgMNh7afVajs-84" target="Q53dCeY0tgMNh7afVajs-87">
          <mxGeometry relative="1" as="geometry">
            <mxPoint x="1671" y="-119" as="sourcePoint" />
            <Array as="points">
              <mxPoint x="1659" y="-63" />
              <mxPoint x="1752" y="-63" />
            </Array>
          </mxGeometry>
        </mxCell>
        <mxCell id="Q53dCeY0tgMNh7afVajs-98" style="rounded=0;orthogonalLoop=1;jettySize=auto;html=1;exitX=0.5;exitY=0;exitDx=0;exitDy=0;entryX=1;entryY=0.5;entryDx=0;entryDy=0;fontSize=12;startSize=8;endSize=8;edgeStyle=orthogonalEdgeStyle;" edge="1" parent="4m3ACshNDVlBQYN_gjH1-11" source="Q53dCeY0tgMNh7afVajs-95" target="Q53dCeY0tgMNh7afVajs-84">
          <mxGeometry relative="1" as="geometry">
            <mxPoint x="1718" y="-179" as="targetPoint" />
            <Array as="points">
              <mxPoint x="1948" y="-149" />
            </Array>
          </mxGeometry>
        </mxCell>
        <mxCell id="Q53dCeY0tgMNh7afVajs-99" value="SI" style="edgeLabel;html=1;align=center;verticalAlign=middle;resizable=0;points=[];fontSize=12;" connectable="0" vertex="1" parent="Q53dCeY0tgMNh7afVajs-98">
          <mxGeometry x="-0.9126" relative="1" as="geometry">
            <mxPoint as="offset" />
          </mxGeometry>
        </mxCell>
        <mxCell id="Q53dCeY0tgMNh7afVajs-103" value="" style="edgeStyle=none;curved=1;rounded=0;orthogonalLoop=1;jettySize=auto;html=1;fontSize=12;startSize=8;endSize=8;exitX=1;exitY=0.5;exitDx=0;exitDy=0;" edge="1" parent="4m3ACshNDVlBQYN_gjH1-11" source="Q53dCeY0tgMNh7afVajs-95" target="Q53dCeY0tgMNh7afVajs-102">
          <mxGeometry relative="1" as="geometry" />
        </mxCell>
        <mxCell id="Q53dCeY0tgMNh7afVajs-149" value="NO" style="edgeLabel;html=1;align=center;verticalAlign=middle;resizable=0;points=[];fontSize=12;" connectable="0" vertex="1" parent="Q53dCeY0tgMNh7afVajs-103">
          <mxGeometry x="-0.4802" y="1" relative="1" as="geometry">
            <mxPoint x="7" as="offset" />
          </mxGeometry>
        </mxCell>
        <mxCell id="Q53dCeY0tgMNh7afVajs-95" value="¿Desea actualizar disponibilidad?" style="rhombus;whiteSpace=wrap;html=1;rounded=0;" vertex="1" parent="4m3ACshNDVlBQYN_gjH1-11">
          <mxGeometry x="1887" y="44" width="121" height="74" as="geometry" />
        </mxCell>
        <mxCell id="Q53dCeY0tgMNh7afVajs-102" value="Cancelación" style="ellipse;whiteSpace=wrap;html=1;rounded=0;fillColor=#f8cecc;strokeColor=#b85450;" vertex="1" parent="4m3ACshNDVlBQYN_gjH1-11">
          <mxGeometry x="2061" y="51" width="71" height="59" as="geometry" />
        </mxCell>
        <mxCell id="4m3ACshNDVlBQYN_gjH1-12" value="Donante" style="swimlane;startSize=20;horizontal=0;html=1;strokeWidth=3;strokeColor=#3399FF;" vertex="1" parent="4m3ACshNDVlBQYN_gjH1-9">
          <mxGeometry y="1073.225806451613" width="2530" height="203.22580645161287" as="geometry" />
        </mxCell>
        <mxCell id="4m3ACshNDVlBQYN_gjH1-47" value="Seleccionar registro a donante" style="rounded=0;whiteSpace=wrap;html=1;" vertex="1" parent="4m3ACshNDVlBQYN_gjH1-12">
          <mxGeometry x="595" y="70.7683870967742" width="100" height="50" as="geometry" />
        </mxCell>
        <mxCell id="Q53dCeY0tgMNh7afVajs-118" style="edgeStyle=none;curved=1;rounded=0;orthogonalLoop=1;jettySize=auto;html=1;exitX=1;exitY=1;exitDx=0;exitDy=0;fontSize=12;startSize=8;endSize=8;entryX=0;entryY=0.5;entryDx=0;entryDy=0;" edge="1" parent="4m3ACshNDVlBQYN_gjH1-12" target="Q53dCeY0tgMNh7afVajs-119">
          <mxGeometry relative="1" as="geometry">
            <mxPoint x="2279" y="123.77419354838707" as="targetPoint" />
            <mxPoint x="1669.0049999999999" y="126.61419354838722" as="sourcePoint" />
          </mxGeometry>
        </mxCell>
        <mxCell id="Q53dCeY0tgMNh7afVajs-60" value="Realizar donación&lt;br&gt;(Wompi/PayU)" style="whiteSpace=wrap;html=1;rounded=0;" vertex="1" parent="4m3ACshNDVlBQYN_gjH1-12">
          <mxGeometry x="1598.9950000000001" y="66.61419354838706" width="120" height="60" as="geometry" />
        </mxCell>
        <mxCell id="Q53dCeY0tgMNh7afVajs-119" value="Consultar seguimiento de su donación" style="whiteSpace=wrap;html=1;rounded=0;" vertex="1" parent="4m3ACshNDVlBQYN_gjH1-12">
          <mxGeometry x="2331" y="93.77419354838707" width="120" height="60" as="geometry" />
        </mxCell>
        <mxCell id="4m3ACshNDVlBQYN_gjH1-17" value="Ciudadano" style="swimlane;startSize=20;horizontal=0;html=1;strokeWidth=3;strokeColor=#3399FF;" vertex="1" parent="4m3ACshNDVlBQYN_gjH1-9">
          <mxGeometry y="1276.4516129032259" width="2530" height="290.32" as="geometry" />
        </mxCell>
        <mxCell id="4m3ACshNDVlBQYN_gjH1-50" value="" style="edgeStyle=orthogonalEdgeStyle;rounded=0;orthogonalLoop=1;jettySize=auto;html=1;" edge="1" parent="4m3ACshNDVlBQYN_gjH1-17" source="4m3ACshNDVlBQYN_gjH1-48" target="4m3ACshNDVlBQYN_gjH1-49">
          <mxGeometry relative="1" as="geometry" />
        </mxCell>
        <mxCell id="4m3ACshNDVlBQYN_gjH1-56" value="" style="edgeStyle=orthogonalEdgeStyle;rounded=0;orthogonalLoop=1;jettySize=auto;html=1;" edge="1" parent="4m3ACshNDVlBQYN_gjH1-17" source="4m3ACshNDVlBQYN_gjH1-48" target="4m3ACshNDVlBQYN_gjH1-55">
          <mxGeometry relative="1" as="geometry" />
        </mxCell>
        <mxCell id="4m3ACshNDVlBQYN_gjH1-48" value="Usuario inicia interacción con el sistema" style="rounded=0;whiteSpace=wrap;html=1;" vertex="1" parent="4m3ACshNDVlBQYN_gjH1-17">
          <mxGeometry x="40" y="76.57" width="100" height="50.08" as="geometry" />
        </mxCell>
        <mxCell id="4m3ACshNDVlBQYN_gjH1-49" value="Reportar una alerta (foto + ubicación)" style="whiteSpace=wrap;html=1;rounded=0;" vertex="1" parent="4m3ACshNDVlBQYN_gjH1-17">
          <mxGeometry x="230" y="71.60999999999999" width="120" height="60" as="geometry" />
        </mxCell>
        <mxCell id="4m3ACshNDVlBQYN_gjH1-57" style="edgeStyle=orthogonalEdgeStyle;rounded=0;orthogonalLoop=1;jettySize=auto;html=1;exitX=1;exitY=0.5;exitDx=0;exitDy=0;entryX=1;entryY=1;entryDx=0;entryDy=0;" edge="1" parent="4m3ACshNDVlBQYN_gjH1-17" source="4m3ACshNDVlBQYN_gjH1-55" target="4m3ACshNDVlBQYN_gjH1-48">
          <mxGeometry relative="1" as="geometry">
            <Array as="points">
              <mxPoint x="140" y="210" />
            </Array>
          </mxGeometry>
        </mxCell>
        <mxCell id="4m3ACshNDVlBQYN_gjH1-59" value="NO" style="edgeLabel;html=1;align=center;verticalAlign=middle;resizable=0;points=[];" connectable="0" vertex="1" parent="4m3ACshNDVlBQYN_gjH1-57">
          <mxGeometry x="0.0286" relative="1" as="geometry">
            <mxPoint as="offset" />
          </mxGeometry>
        </mxCell>
        <mxCell id="4m3ACshNDVlBQYN_gjH1-62" style="edgeStyle=orthogonalEdgeStyle;rounded=0;orthogonalLoop=1;jettySize=auto;html=1;exitX=0.5;exitY=1;exitDx=0;exitDy=0;entryX=0.5;entryY=1;entryDx=0;entryDy=0;" edge="1" parent="4m3ACshNDVlBQYN_gjH1-17" source="4m3ACshNDVlBQYN_gjH1-55" target="4m3ACshNDVlBQYN_gjH1-49">
          <mxGeometry relative="1" as="geometry">
            <Array as="points">
              <mxPoint x="290" y="250" />
            </Array>
          </mxGeometry>
        </mxCell>
        <mxCell id="Q53dCeY0tgMNh7afVajs-34" style="edgeStyle=orthogonalEdgeStyle;rounded=0;orthogonalLoop=1;jettySize=auto;html=1;exitX=0.5;exitY=1;exitDx=0;exitDy=0;fontSize=12;startSize=8;endSize=8;entryX=0;entryY=0.5;entryDx=0;entryDy=0;" edge="1" parent="4m3ACshNDVlBQYN_gjH1-17" source="4m3ACshNDVlBQYN_gjH1-55" target="Q53dCeY0tgMNh7afVajs-35">
          <mxGeometry relative="1" as="geometry">
            <mxPoint x="570" y="123.54838709677415" as="targetPoint" />
            <Array as="points">
              <mxPoint x="550" y="250" />
              <mxPoint x="550" y="104" />
              <mxPoint x="570" y="104" />
            </Array>
          </mxGeometry>
        </mxCell>
        <mxCell id="4m3ACshNDVlBQYN_gjH1-55" value="¿Se registró?" style="rhombus;whiteSpace=wrap;html=1;rounded=0;" vertex="1" parent="4m3ACshNDVlBQYN_gjH1-17">
          <mxGeometry x="50" y="170.31999999999996" width="80" height="80" as="geometry" />
        </mxCell>
        <mxCell id="4m3ACshNDVlBQYN_gjH1-51" value="Geolocalizar alerta y enviar a fundaciones disponibles" style="whiteSpace=wrap;html=1;rounded=0;" vertex="1" parent="4m3ACshNDVlBQYN_gjH1-17">
          <mxGeometry x="390" y="71.61000000000001" width="120" height="60" as="geometry" />
        </mxCell>
        <mxCell id="4m3ACshNDVlBQYN_gjH1-52" value="" style="edgeStyle=orthogonalEdgeStyle;rounded=0;orthogonalLoop=1;jettySize=auto;html=1;exitX=1;exitY=0.5;exitDx=0;exitDy=0;" edge="1" parent="4m3ACshNDVlBQYN_gjH1-17" source="4m3ACshNDVlBQYN_gjH1-49" target="4m3ACshNDVlBQYN_gjH1-51">
          <mxGeometry relative="1" as="geometry" />
        </mxCell>
        <mxCell id="Q53dCeY0tgMNh7afVajs-35" value="Consultar animal disponible en adopción" style="rounded=0;whiteSpace=wrap;html=1;" vertex="1" parent="4m3ACshNDVlBQYN_gjH1-17">
          <mxGeometry x="595" y="78.6483870967741" width="100" height="50" as="geometry" />
        </mxCell>
        <mxCell id="4m3ACshNDVlBQYN_gjH1-40" style="rounded=0;orthogonalLoop=1;jettySize=auto;html=1;entryX=0;entryY=0.5;entryDx=0;entryDy=0;exitX=0.5;exitY=0;exitDx=0;exitDy=0;edgeStyle=orthogonalEdgeStyle;" edge="1" parent="4m3ACshNDVlBQYN_gjH1-9" source="4m3ACshNDVlBQYN_gjH1-39" target="4m3ACshNDVlBQYN_gjH1-38">
          <mxGeometry relative="1" as="geometry">
            <mxPoint x="180" y="334" as="sourcePoint" />
          </mxGeometry>
        </mxCell>
        <mxCell id="4m3ACshNDVlBQYN_gjH1-46" style="edgeStyle=orthogonalEdgeStyle;rounded=0;orthogonalLoop=1;jettySize=auto;html=1;exitX=1;exitY=0.5;exitDx=0;exitDy=0;entryX=0.5;entryY=0;entryDx=0;entryDy=0;" edge="1" parent="4m3ACshNDVlBQYN_gjH1-9" source="4m3ACshNDVlBQYN_gjH1-30" target="4m3ACshNDVlBQYN_gjH1-43">
          <mxGeometry relative="1" as="geometry">
            <Array as="points">
              <mxPoint x="510" y="80" />
              <mxPoint x="510" y="280" />
              <mxPoint x="210" y="280" />
            </Array>
          </mxGeometry>
        </mxCell>
        <mxCell id="4m3ACshNDVlBQYN_gjH1-60" style="rounded=0;orthogonalLoop=1;jettySize=auto;html=1;exitX=0.5;exitY=1;exitDx=0;exitDy=0;edgeStyle=orthogonalEdgeStyle;entryX=0;entryY=0.5;entryDx=0;entryDy=0;" edge="1" parent="4m3ACshNDVlBQYN_gjH1-9" source="4m3ACshNDVlBQYN_gjH1-55" target="4m3ACshNDVlBQYN_gjH1-47">
          <mxGeometry relative="1" as="geometry">
            <Array as="points">
              <mxPoint x="550" y="1527" />
              <mxPoint x="550" y="1169" />
            </Array>
            <mxPoint x="90" y="1327.771612903226" as="sourcePoint" />
            <mxPoint x="579" y="1187" as="targetPoint" />
          </mxGeometry>
        </mxCell>
        <mxCell id="4m3ACshNDVlBQYN_gjH1-64" style="rounded=0;orthogonalLoop=1;jettySize=auto;html=1;exitX=0.5;exitY=1;exitDx=0;exitDy=0;edgeStyle=orthogonalEdgeStyle;entryX=0;entryY=0.5;entryDx=0;entryDy=0;" edge="1" parent="4m3ACshNDVlBQYN_gjH1-9" source="4m3ACshNDVlBQYN_gjH1-55" target="4m3ACshNDVlBQYN_gjH1-45">
          <mxGeometry relative="1" as="geometry">
            <mxPoint x="579" y="967" as="targetPoint" />
            <Array as="points">
              <mxPoint x="550" y="1527" />
              <mxPoint x="550" y="961" />
            </Array>
            <mxPoint x="90" y="1327.771612903226" as="sourcePoint" />
          </mxGeometry>
        </mxCell>
        <mxCell id="Q53dCeY0tgMNh7afVajs-145" value="SI" style="edgeLabel;html=1;align=center;verticalAlign=middle;resizable=0;points=[];fontSize=12;" connectable="0" vertex="1" parent="4m3ACshNDVlBQYN_gjH1-64">
          <mxGeometry x="-0.9027" y="-1" relative="1" as="geometry">
            <mxPoint as="offset" />
          </mxGeometry>
        </mxCell>
        <mxCell id="4m3ACshNDVlBQYN_gjH1-68" style="edgeStyle=orthogonalEdgeStyle;rounded=0;orthogonalLoop=1;jettySize=auto;html=1;exitX=0.5;exitY=0;exitDx=0;exitDy=0;entryX=0.5;entryY=1;entryDx=0;entryDy=0;" edge="1" parent="4m3ACshNDVlBQYN_gjH1-9" source="4m3ACshNDVlBQYN_gjH1-51" target="4m3ACshNDVlBQYN_gjH1-53">
          <mxGeometry relative="1" as="geometry" />
        </mxCell>
        <mxCell id="Q53dCeY0tgMNh7afVajs-40" style="edgeStyle=orthogonalEdgeStyle;rounded=0;orthogonalLoop=1;jettySize=auto;html=1;exitX=1;exitY=0.5;exitDx=0;exitDy=0;entryX=0.5;entryY=1;entryDx=0;entryDy=0;fontSize=12;startSize=8;endSize=8;" edge="1" parent="4m3ACshNDVlBQYN_gjH1-9" source="Q53dCeY0tgMNh7afVajs-35" target="4m3ACshNDVlBQYN_gjH1-76">
          <mxGeometry relative="1" as="geometry" />
        </mxCell>
        <mxCell id="Q53dCeY0tgMNh7afVajs-108" value="" style="edgeStyle=orthogonalEdgeStyle;rounded=0;orthogonalLoop=1;jettySize=auto;html=1;fontSize=12;startSize=8;endSize=8;exitX=1;exitY=0;exitDx=0;exitDy=0;" edge="1" parent="4m3ACshNDVlBQYN_gjH1-9" source="Q53dCeY0tgMNh7afVajs-60" target="Q53dCeY0tgMNh7afVajs-107">
          <mxGeometry relative="1" as="geometry">
            <Array as="points">
              <mxPoint x="2199" y="1140" />
            </Array>
          </mxGeometry>
        </mxCell>
        <mxCell id="Q53dCeY0tgMNh7afVajs-120" style="edgeStyle=none;curved=1;rounded=0;orthogonalLoop=1;jettySize=auto;html=1;exitX=0.5;exitY=0;exitDx=0;exitDy=0;entryX=0.5;entryY=1;entryDx=0;entryDy=0;fontSize=12;startSize=8;endSize=8;" edge="1" parent="4m3ACshNDVlBQYN_gjH1-9" source="Q53dCeY0tgMNh7afVajs-119" target="Q53dCeY0tgMNh7afVajs-114">
          <mxGeometry relative="1" as="geometry" />
        </mxCell>
        <mxCell id="Q53dCeY0tgMNh7afVajs-121" style="edgeStyle=none;curved=1;rounded=0;orthogonalLoop=1;jettySize=auto;html=1;exitX=0.5;exitY=0;exitDx=0;exitDy=0;fontSize=12;startSize=8;endSize=8;entryX=0.5;entryY=1;entryDx=0;entryDy=0;" edge="1" parent="4m3ACshNDVlBQYN_gjH1-9" source="Q53dCeY0tgMNh7afVajs-107" target="Q53dCeY0tgMNh7afVajs-122">
          <mxGeometry relative="1" as="geometry">
            <mxPoint x="2198.714285714286" y="177" as="targetPoint" />
          </mxGeometry>
        </mxCell>
        <mxCell id="Q53dCeY0tgMNh7afVajs-135" style="edgeStyle=orthogonalEdgeStyle;rounded=0;orthogonalLoop=1;jettySize=auto;html=1;exitX=0.5;exitY=0;exitDx=0;exitDy=0;entryX=0;entryY=0.5;entryDx=0;entryDy=0;fontSize=12;startSize=8;endSize=8;" edge="1" parent="4m3ACshNDVlBQYN_gjH1-9" source="Q53dCeY0tgMNh7afVajs-124" target="Q53dCeY0tgMNh7afVajs-133">
          <mxGeometry relative="1" as="geometry" />
        </mxCell>
        <mxCell id="Q53dCeY0tgMNh7afVajs-61" value="" style="edgeStyle=none;curved=1;rounded=0;orthogonalLoop=1;jettySize=auto;html=1;fontSize=12;startSize=8;endSize=8;" edge="1" parent="1" source="Q53dCeY0tgMNh7afVajs-46" target="Q53dCeY0tgMNh7afVajs-60">
          <mxGeometry relative="1" as="geometry" />
        </mxCell>
        <mxCell id="Q53dCeY0tgMNh7afVajs-46" value="Consultar campaña de donación o evento de adopción" style="rounded=0;whiteSpace=wrap;html=1;rotation=-90;" vertex="1" parent="1">
          <mxGeometry x="-70.12" y="353.88" width="417.75" height="70" as="geometry" />
        </mxCell>
        <mxCell id="Q53dCeY0tgMNh7afVajs-49" style="edgeStyle=none;curved=1;rounded=0;orthogonalLoop=1;jettySize=auto;html=1;exitX=1;exitY=0.5;exitDx=0;exitDy=0;entryX=0.5;entryY=0;entryDx=0;entryDy=0;fontSize=12;startSize=8;endSize=8;" edge="1" parent="1" source="4m3ACshNDVlBQYN_gjH1-47" target="Q53dCeY0tgMNh7afVajs-46">
          <mxGeometry relative="1" as="geometry">
            <mxPoint x="-575" y="404.9941935483871" as="sourcePoint" />
            <mxPoint x="103.75499999999988" y="397.8800000000001" as="targetPoint" />
          </mxGeometry>
        </mxCell>
        <mxCell id="Q53dCeY0tgMNh7afVajs-50" style="edgeStyle=none;curved=1;rounded=0;orthogonalLoop=1;jettySize=auto;html=1;exitX=1;exitY=0.5;exitDx=0;exitDy=0;entryX=1;entryY=0;entryDx=0;entryDy=0;fontSize=12;startSize=8;endSize=8;" edge="1" parent="1" source="4m3ACshNDVlBQYN_gjH1-45" target="Q53dCeY0tgMNh7afVajs-46">
          <mxGeometry relative="1" as="geometry" />
        </mxCell>
        <mxCell id="Q53dCeY0tgMNh7afVajs-59" style="edgeStyle=none;curved=1;rounded=0;orthogonalLoop=1;jettySize=auto;html=1;entryX=1;entryY=0.5;entryDx=0;entryDy=0;fontSize=12;startSize=8;endSize=8;exitX=0.5;exitY=1;exitDx=0;exitDy=0;" edge="1" parent="1" source="Q53dCeY0tgMNh7afVajs-127" target="Q53dCeY0tgMNh7afVajs-46">
          <mxGeometry relative="1" as="geometry">
            <mxPoint x="139" y="-193" as="sourcePoint" />
          </mxGeometry>
        </mxCell>
        <mxCell id="Q53dCeY0tgMNh7afVajs-129" value="SI" style="edgeLabel;html=1;align=center;verticalAlign=middle;resizable=0;points=[];fontSize=12;" connectable="0" vertex="1" parent="Q53dCeY0tgMNh7afVajs-59">
          <mxGeometry x="-0.8452" y="-1" relative="1" as="geometry">
            <mxPoint as="offset" />
          </mxGeometry>
        </mxCell>
        <mxCell id="Q53dCeY0tgMNh7afVajs-66" value="" style="edgeStyle=none;curved=1;rounded=0;orthogonalLoop=1;jettySize=auto;html=1;fontSize=12;startSize=8;endSize=8;exitX=1;exitY=1;exitDx=0;exitDy=0;entryX=0;entryY=0.5;entryDx=0;entryDy=0;" edge="1" parent="1" source="Q53dCeY0tgMNh7afVajs-46" target="Q53dCeY0tgMNh7afVajs-65">
          <mxGeometry relative="1" as="geometry">
            <mxPoint x="174" y="179.77000000000004" as="sourcePoint" />
          </mxGeometry>
        </mxCell>
      </root>
    </mxGraphModel>
  </diagram>
  <diagram id="ixMPSELSY3QZKQ9DSH2f" name="Sin el Software">
    <mxGraphModel grid="1" page="1" gridSize="10" guides="1" tooltips="1" connect="1" arrows="1" fold="1" pageScale="1" pageWidth="827" pageHeight="1169" math="0" shadow="0">
      <root>
        <mxCell id="0" />
        <mxCell id="1" parent="0" />
        <mxCell id="zZjKnL9pvnuB15xlmxlR-1" value="" style="group" connectable="0" vertex="1" parent="1">
          <mxGeometry x="-5580" y="190" width="5700" height="1471.7716129032258" as="geometry" />
        </mxCell>
        <mxCell id="zZjKnL9pvnuB15xlmxlR-2" value="&lt;font style=&quot;font-size: 19px;&quot;&gt;MAPA DE PROCESOS BPMN - ZAAP / Software integrado&lt;/font&gt;" style="swimlane;childLayout=stackLayout;resizeParent=1;resizeParentMax=0;horizontal=1;startSize=20;horizontalStack=0;html=1;strokeWidth=3;strokeColor=#3399FF;" vertex="1" parent="zZjKnL9pvnuB15xlmxlR-1">
          <mxGeometry x="-50" y="-95" width="2330" height="1424.324193548387" as="geometry">
            <mxRectangle width="60" height="30" as="alternateBounds" />
          </mxGeometry>
        </mxCell>
        <mxCell id="zZjKnL9pvnuB15xlmxlR-24" value="Fundación" style="swimlane;startSize=20;horizontal=0;html=1;strokeWidth=3;strokeColor=#3399FF;" vertex="1" parent="zZjKnL9pvnuB15xlmxlR-2">
          <mxGeometry y="20" width="2330" height="684.25" as="geometry" />
        </mxCell>
        <mxCell id="zZjKnL9pvnuB15xlmxlR-31" value="" style="edgeStyle=orthogonalEdgeStyle;rounded=0;orthogonalLoop=1;jettySize=auto;html=1;" edge="1" parent="zZjKnL9pvnuB15xlmxlR-24" source="zZjKnL9pvnuB15xlmxlR-32" target="zZjKnL9pvnuB15xlmxlR-34">
          <mxGeometry relative="1" as="geometry" />
        </mxCell>
        <mxCell id="zZjKnL9pvnuB15xlmxlR-32" value="Revisar y confirma dicha alerta" style="rounded=0;whiteSpace=wrap;html=1;" vertex="1" parent="zZjKnL9pvnuB15xlmxlR-24">
          <mxGeometry x="140" y="543.61" width="100" height="50" as="geometry" />
        </mxCell>
        <mxCell id="zZjKnL9pvnuB15xlmxlR-33" value="" style="edgeStyle=orthogonalEdgeStyle;rounded=0;orthogonalLoop=1;jettySize=auto;html=1;" edge="1" parent="zZjKnL9pvnuB15xlmxlR-24" source="zZjKnL9pvnuB15xlmxlR-34" target="zZjKnL9pvnuB15xlmxlR-36">
          <mxGeometry relative="1" as="geometry" />
        </mxCell>
        <mxCell id="zZjKnL9pvnuB15xlmxlR-34" value="Rescatar el animal reportado" style="rounded=0;whiteSpace=wrap;html=1;" vertex="1" parent="zZjKnL9pvnuB15xlmxlR-24">
          <mxGeometry x="530" y="543.61" width="100" height="50" as="geometry" />
        </mxCell>
        <mxCell id="zZjKnL9pvnuB15xlmxlR-35" style="edgeStyle=orthogonalEdgeStyle;rounded=0;orthogonalLoop=1;jettySize=auto;html=1;exitX=0.5;exitY=0;exitDx=0;exitDy=0;entryX=0.5;entryY=1;entryDx=0;entryDy=0;" edge="1" parent="zZjKnL9pvnuB15xlmxlR-24" source="zZjKnL9pvnuB15xlmxlR-36" target="zZjKnL9pvnuB15xlmxlR-44">
          <mxGeometry relative="1" as="geometry" />
        </mxCell>
        <mxCell id="zZjKnL9pvnuB15xlmxlR-36" value="Registrar animal rescatado" style="rounded=0;whiteSpace=wrap;html=1;" vertex="1" parent="zZjKnL9pvnuB15xlmxlR-24">
          <mxGeometry x="660" y="543.61" width="100" height="50" as="geometry" />
        </mxCell>
        <mxCell id="zZjKnL9pvnuB15xlmxlR-37" value="" style="edgeStyle=none;curved=1;rounded=0;orthogonalLoop=1;jettySize=auto;html=1;fontSize=12;startSize=8;endSize=8;" edge="1" parent="zZjKnL9pvnuB15xlmxlR-24" source="zZjKnL9pvnuB15xlmxlR-39" target="zZjKnL9pvnuB15xlmxlR-56">
          <mxGeometry relative="1" as="geometry" />
        </mxCell>
        <mxCell id="zZjKnL9pvnuB15xlmxlR-38" style="edgeStyle=orthogonalEdgeStyle;rounded=0;orthogonalLoop=1;jettySize=auto;html=1;exitX=0.5;exitY=0;exitDx=0;exitDy=0;entryX=0;entryY=1;entryDx=0;entryDy=0;fontSize=12;startSize=8;endSize=8;" edge="1" parent="zZjKnL9pvnuB15xlmxlR-24" source="zZjKnL9pvnuB15xlmxlR-39" target="zZjKnL9pvnuB15xlmxlR-60">
          <mxGeometry relative="1" as="geometry">
            <Array as="points">
              <mxPoint x="1040" y="149" />
            </Array>
          </mxGeometry>
        </mxCell>
        <mxCell id="zZjKnL9pvnuB15xlmxlR-39" value="&lt;div&gt;Publicar animales disponibles&lt;/div&gt;&lt;div&gt;en adopción&lt;/div&gt;" style="rounded=0;whiteSpace=wrap;html=1;fillColor=none;strokeColor=#000000;" vertex="1" parent="zZjKnL9pvnuB15xlmxlR-24">
          <mxGeometry x="990" y="272.86" width="100" height="50" as="geometry" />
        </mxCell>
        <mxCell id="zZjKnL9pvnuB15xlmxlR-40" value="" style="edgeStyle=orthogonalEdgeStyle;rounded=0;orthogonalLoop=1;jettySize=auto;html=1;" edge="1" parent="zZjKnL9pvnuB15xlmxlR-24" source="zZjKnL9pvnuB15xlmxlR-44" target="zZjKnL9pvnuB15xlmxlR-46">
          <mxGeometry relative="1" as="geometry" />
        </mxCell>
        <mxCell id="zZjKnL9pvnuB15xlmxlR-41" value="SI" style="edgeLabel;html=1;align=center;verticalAlign=middle;resizable=0;points=[];" connectable="0" vertex="1" parent="zZjKnL9pvnuB15xlmxlR-40">
          <mxGeometry x="-0.0478" y="1" relative="1" as="geometry">
            <mxPoint as="offset" />
          </mxGeometry>
        </mxCell>
        <mxCell id="zZjKnL9pvnuB15xlmxlR-42" style="edgeStyle=orthogonalEdgeStyle;rounded=0;orthogonalLoop=1;jettySize=auto;html=1;exitX=0.5;exitY=0;exitDx=0;exitDy=0;fontSize=12;startSize=8;endSize=8;entryX=0;entryY=0.75;entryDx=0;entryDy=0;" edge="1" parent="zZjKnL9pvnuB15xlmxlR-24" source="zZjKnL9pvnuB15xlmxlR-44" target="zZjKnL9pvnuB15xlmxlR-39">
          <mxGeometry relative="1" as="geometry">
            <mxPoint x="1010" y="321" as="targetPoint" />
            <Array as="points">
              <mxPoint x="710" y="311" />
              <mxPoint x="880" y="311" />
            </Array>
          </mxGeometry>
        </mxCell>
        <mxCell id="zZjKnL9pvnuB15xlmxlR-43" value="NO" style="edgeLabel;html=1;align=center;verticalAlign=middle;resizable=0;points=[];fontSize=12;" connectable="0" vertex="1" parent="zZjKnL9pvnuB15xlmxlR-42">
          <mxGeometry x="-0.855" y="2" relative="1" as="geometry">
            <mxPoint as="offset" />
          </mxGeometry>
        </mxCell>
        <mxCell id="zZjKnL9pvnuB15xlmxlR-44" value="¿Tiene complicaciones médicas?" style="rhombus;whiteSpace=wrap;html=1;rounded=0;" vertex="1" parent="zZjKnL9pvnuB15xlmxlR-24">
          <mxGeometry x="660" y="431" width="100" height="80" as="geometry" />
        </mxCell>
        <mxCell id="zZjKnL9pvnuB15xlmxlR-45" value="" style="edgeStyle=orthogonalEdgeStyle;rounded=0;orthogonalLoop=1;jettySize=auto;html=1;" edge="1" parent="zZjKnL9pvnuB15xlmxlR-24" source="zZjKnL9pvnuB15xlmxlR-46" target="zZjKnL9pvnuB15xlmxlR-51">
          <mxGeometry relative="1" as="geometry" />
        </mxCell>
        <mxCell id="zZjKnL9pvnuB15xlmxlR-46" value="Revisar con un veterinario y control de salud" style="whiteSpace=wrap;html=1;rounded=0;" vertex="1" parent="zZjKnL9pvnuB15xlmxlR-24">
          <mxGeometry x="820" y="448.5" width="90" height="45" as="geometry" />
        </mxCell>
        <mxCell id="zZjKnL9pvnuB15xlmxlR-47" style="edgeStyle=orthogonalEdgeStyle;rounded=0;orthogonalLoop=1;jettySize=auto;html=1;exitX=0.5;exitY=1;exitDx=0;exitDy=0;entryX=0;entryY=1;entryDx=0;entryDy=0;" edge="1" parent="zZjKnL9pvnuB15xlmxlR-24" source="zZjKnL9pvnuB15xlmxlR-51" target="zZjKnL9pvnuB15xlmxlR-39">
          <mxGeometry relative="1" as="geometry">
            <Array as="points">
              <mxPoint x="990" y="591" />
            </Array>
          </mxGeometry>
        </mxCell>
        <mxCell id="zZjKnL9pvnuB15xlmxlR-48" value="SI" style="edgeLabel;html=1;align=center;verticalAlign=middle;resizable=0;points=[];" connectable="0" vertex="1" parent="zZjKnL9pvnuB15xlmxlR-47">
          <mxGeometry x="-0.6478" relative="1" as="geometry">
            <mxPoint as="offset" />
          </mxGeometry>
        </mxCell>
        <mxCell id="zZjKnL9pvnuB15xlmxlR-49" style="edgeStyle=orthogonalEdgeStyle;rounded=0;orthogonalLoop=1;jettySize=auto;html=1;exitX=1;exitY=0.5;exitDx=0;exitDy=0;entryX=1;entryY=0.5;entryDx=0;entryDy=0;" edge="1" parent="zZjKnL9pvnuB15xlmxlR-24" source="zZjKnL9pvnuB15xlmxlR-51" target="zZjKnL9pvnuB15xlmxlR-46">
          <mxGeometry relative="1" as="geometry">
            <Array as="points">
              <mxPoint x="960" y="552" />
              <mxPoint x="960" y="471" />
            </Array>
          </mxGeometry>
        </mxCell>
        <mxCell id="zZjKnL9pvnuB15xlmxlR-50" value="NO" style="edgeLabel;html=1;align=center;verticalAlign=middle;resizable=0;points=[];fontSize=12;" connectable="0" vertex="1" parent="zZjKnL9pvnuB15xlmxlR-49">
          <mxGeometry x="0.0435" y="1" relative="1" as="geometry">
            <mxPoint as="offset" />
          </mxGeometry>
        </mxCell>
        <mxCell id="zZjKnL9pvnuB15xlmxlR-51" value="¿Mejoró su condición?" style="rhombus;whiteSpace=wrap;html=1;rounded=0;" vertex="1" parent="zZjKnL9pvnuB15xlmxlR-24">
          <mxGeometry x="825" y="513.61" width="80" height="77.39" as="geometry" />
        </mxCell>
        <mxCell id="zZjKnL9pvnuB15xlmxlR-52" value="" style="rounded=0;orthogonalLoop=1;jettySize=auto;html=1;fontSize=12;startSize=8;endSize=8;exitX=0.5;exitY=1;exitDx=0;exitDy=0;entryX=0;entryY=0.5;entryDx=0;entryDy=0;edgeStyle=orthogonalEdgeStyle;elbow=vertical;" edge="1" parent="zZjKnL9pvnuB15xlmxlR-24" source="zZjKnL9pvnuB15xlmxlR-56" target="zZjKnL9pvnuB15xlmxlR-57">
          <mxGeometry relative="1" as="geometry">
            <mxPoint x="1190" y="317.8600000000001" as="sourcePoint" />
            <mxPoint x="1110.0285714285715" y="394" as="targetPoint" />
          </mxGeometry>
        </mxCell>
        <mxCell id="zZjKnL9pvnuB15xlmxlR-53" value="NO" style="edgeLabel;html=1;align=center;verticalAlign=middle;resizable=0;points=[];fontSize=12;" connectable="0" vertex="1" parent="zZjKnL9pvnuB15xlmxlR-52">
          <mxGeometry x="0.2277" relative="1" as="geometry">
            <mxPoint x="4" as="offset" />
          </mxGeometry>
        </mxCell>
        <mxCell id="zZjKnL9pvnuB15xlmxlR-54" style="edgeStyle=orthogonalEdgeStyle;rounded=0;orthogonalLoop=1;jettySize=auto;html=1;exitX=0.5;exitY=1;exitDx=0;exitDy=0;entryX=0;entryY=0.5;entryDx=0;entryDy=0;fontSize=12;startSize=8;endSize=8;" edge="1" parent="zZjKnL9pvnuB15xlmxlR-24" source="zZjKnL9pvnuB15xlmxlR-56" target="zZjKnL9pvnuB15xlmxlR-58">
          <mxGeometry relative="1" as="geometry" />
        </mxCell>
        <mxCell id="zZjKnL9pvnuB15xlmxlR-55" value="SI" style="edgeLabel;html=1;align=center;verticalAlign=middle;resizable=0;points=[];fontSize=12;" connectable="0" vertex="1" parent="zZjKnL9pvnuB15xlmxlR-54">
          <mxGeometry x="0.5122" y="1" relative="1" as="geometry">
            <mxPoint x="11" as="offset" />
          </mxGeometry>
        </mxCell>
        <mxCell id="zZjKnL9pvnuB15xlmxlR-56" value="¿Solicitud aprobada?" style="rhombus;whiteSpace=wrap;html=1;rounded=0;" vertex="1" parent="zZjKnL9pvnuB15xlmxlR-24">
          <mxGeometry x="1160" y="257.86" width="80" height="80" as="geometry" />
        </mxCell>
        <mxCell id="zZjKnL9pvnuB15xlmxlR-57" value="Fin" style="ellipse;whiteSpace=wrap;html=1;rounded=0;fillColor=#f8cecc;strokeColor=#b85450;" vertex="1" parent="zZjKnL9pvnuB15xlmxlR-24">
          <mxGeometry x="1260" y="362" width="30" height="30" as="geometry" />
        </mxCell>
        <mxCell id="zZjKnL9pvnuB15xlmxlR-58" value="Coordinar entrega" style="ellipse;whiteSpace=wrap;html=1;rounded=0;fillColor=#f8cecc;strokeColor=#b85450;" vertex="1" parent="zZjKnL9pvnuB15xlmxlR-24">
          <mxGeometry x="1253" y="431" width="65" height="65" as="geometry" />
        </mxCell>
        <mxCell id="zZjKnL9pvnuB15xlmxlR-59" style="edgeStyle=none;curved=1;rounded=0;orthogonalLoop=1;jettySize=auto;html=1;exitX=0.5;exitY=1;exitDx=0;exitDy=0;entryX=0.5;entryY=0;entryDx=0;entryDy=0;fontSize=12;startSize=8;endSize=8;" edge="1" parent="zZjKnL9pvnuB15xlmxlR-24" source="zZjKnL9pvnuB15xlmxlR-60" target="zZjKnL9pvnuB15xlmxlR-67">
          <mxGeometry relative="1" as="geometry" />
        </mxCell>
        <mxCell id="zZjKnL9pvnuB15xlmxlR-60" value="Crear campaña o evento" style="whiteSpace=wrap;html=1;rounded=0;" vertex="1" parent="zZjKnL9pvnuB15xlmxlR-24">
          <mxGeometry x="1363" y="104.00000000000001" width="90" height="45" as="geometry" />
        </mxCell>
        <mxCell id="zZjKnL9pvnuB15xlmxlR-65" style="edgeStyle=none;curved=1;rounded=0;orthogonalLoop=1;jettySize=auto;html=1;exitX=1;exitY=0.5;exitDx=0;exitDy=0;entryX=0;entryY=0.5;entryDx=0;entryDy=0;fontSize=12;startSize=8;endSize=8;" edge="1" parent="zZjKnL9pvnuB15xlmxlR-24" source="zZjKnL9pvnuB15xlmxlR-67" target="zZjKnL9pvnuB15xlmxlR-68">
          <mxGeometry relative="1" as="geometry" />
        </mxCell>
        <mxCell id="zZjKnL9pvnuB15xlmxlR-66" value="NO" style="edgeLabel;html=1;align=center;verticalAlign=middle;resizable=0;points=[];fontSize=12;" connectable="0" vertex="1" parent="zZjKnL9pvnuB15xlmxlR-65">
          <mxGeometry x="-0.3217" relative="1" as="geometry">
            <mxPoint as="offset" />
          </mxGeometry>
        </mxCell>
        <mxCell id="NZS-lYJot6zdgNeuY0w6-2" value="" style="edgeStyle=orthogonalEdgeStyle;rounded=0;orthogonalLoop=1;jettySize=auto;html=1;" edge="1" parent="zZjKnL9pvnuB15xlmxlR-24" source="zZjKnL9pvnuB15xlmxlR-67" target="NZS-lYJot6zdgNeuY0w6-1">
          <mxGeometry relative="1" as="geometry" />
        </mxCell>
        <mxCell id="zZjKnL9pvnuB15xlmxlR-67" value="¿Continua la disponibilidad?" style="rhombus;whiteSpace=wrap;html=1;rounded=0;" vertex="1" parent="zZjKnL9pvnuB15xlmxlR-24">
          <mxGeometry x="1353" y="227" width="110" height="80" as="geometry" />
        </mxCell>
        <mxCell id="zZjKnL9pvnuB15xlmxlR-68" value="Se cancela" style="ellipse;whiteSpace=wrap;html=1;rounded=0;fillColor=#f8cecc;strokeColor=#b85450;" vertex="1" parent="zZjKnL9pvnuB15xlmxlR-24">
          <mxGeometry x="1509" y="242.25" width="51" height="49.5" as="geometry" />
        </mxCell>
        <mxCell id="zZjKnL9pvnuB15xlmxlR-74" value="Asignar tareas disponibles a voluntario" style="whiteSpace=wrap;html=1;rounded=0;" vertex="1" parent="zZjKnL9pvnuB15xlmxlR-24">
          <mxGeometry x="1343" y="511" width="120" height="60" as="geometry" />
        </mxCell>
        <mxCell id="NZS-lYJot6zdgNeuY0w6-1" value="" style="ellipse;whiteSpace=wrap;html=1;rounded=0;" vertex="1" parent="zZjKnL9pvnuB15xlmxlR-24">
          <mxGeometry x="1368" y="387" width="80" height="80" as="geometry" />
        </mxCell>
        <mxCell id="zZjKnL9pvnuB15xlmxlR-71" value="Voluntario" style="swimlane;startSize=20;horizontal=0;html=1;strokeWidth=3;strokeColor=#3399FF;" vertex="1" parent="zZjKnL9pvnuB15xlmxlR-2">
          <mxGeometry y="704.25" width="2330" height="203.23" as="geometry" />
        </mxCell>
        <mxCell id="zZjKnL9pvnuB15xlmxlR-75" value="" style="rounded=0;orthogonalLoop=1;jettySize=auto;html=1;fontSize=12;startSize=8;endSize=8;exitX=0.5;exitY=1;exitDx=0;exitDy=0;entryX=0;entryY=0.5;entryDx=0;entryDy=0;edgeStyle=orthogonalEdgeStyle;" edge="1" parent="zZjKnL9pvnuB15xlmxlR-71" source="zZjKnL9pvnuB15xlmxlR-79" target="zZjKnL9pvnuB15xlmxlR-80">
          <mxGeometry relative="1" as="geometry">
            <mxPoint x="1869" y="177" as="targetPoint" />
            <mxPoint x="1840.9972491950125" y="45.69202331937112" as="sourcePoint" />
          </mxGeometry>
        </mxCell>
        <mxCell id="zZjKnL9pvnuB15xlmxlR-76" value="SI" style="edgeLabel;html=1;align=center;verticalAlign=middle;resizable=0;points=[];fontSize=12;" connectable="0" vertex="1" parent="zZjKnL9pvnuB15xlmxlR-75">
          <mxGeometry x="-0.2082" y="-1" relative="1" as="geometry">
            <mxPoint as="offset" />
          </mxGeometry>
        </mxCell>
        <mxCell id="zZjKnL9pvnuB15xlmxlR-77" style="edgeStyle=none;curved=1;rounded=0;orthogonalLoop=1;jettySize=auto;html=1;exitX=1;exitY=0.5;exitDx=0;exitDy=0;entryX=0;entryY=0.5;entryDx=0;entryDy=0;fontSize=12;startSize=8;endSize=8;" edge="1" parent="zZjKnL9pvnuB15xlmxlR-71" source="zZjKnL9pvnuB15xlmxlR-79" target="zZjKnL9pvnuB15xlmxlR-87">
          <mxGeometry relative="1" as="geometry" />
        </mxCell>
        <mxCell id="zZjKnL9pvnuB15xlmxlR-78" value="NO" style="edgeLabel;html=1;align=center;verticalAlign=middle;resizable=0;points=[];fontSize=12;" connectable="0" vertex="1" parent="zZjKnL9pvnuB15xlmxlR-77">
          <mxGeometry x="-0.0196" y="1" relative="1" as="geometry">
            <mxPoint as="offset" />
          </mxGeometry>
        </mxCell>
        <mxCell id="zZjKnL9pvnuB15xlmxlR-79" value="¿Acepta la tarea asignada?" style="rhombus;whiteSpace=wrap;html=1;rounded=0;" vertex="1" parent="zZjKnL9pvnuB15xlmxlR-71">
          <mxGeometry x="1691" y="36.61" width="121" height="89" as="geometry" />
        </mxCell>
        <mxCell id="zZjKnL9pvnuB15xlmxlR-80" value="Coordinar&lt;br&gt;disponibilidad" style="ellipse;whiteSpace=wrap;html=1;rounded=0;fillColor=#f8cecc;strokeColor=#b85450;" vertex="1" parent="zZjKnL9pvnuB15xlmxlR-71">
          <mxGeometry x="1803" y="125.60999999999999" width="81" height="69.39" as="geometry" />
        </mxCell>
        <mxCell id="zZjKnL9pvnuB15xlmxlR-85" value="" style="edgeStyle=none;curved=1;rounded=0;orthogonalLoop=1;jettySize=auto;html=1;fontSize=12;startSize=8;endSize=8;exitX=1;exitY=0.5;exitDx=0;exitDy=0;" edge="1" parent="zZjKnL9pvnuB15xlmxlR-71" source="zZjKnL9pvnuB15xlmxlR-87" target="zZjKnL9pvnuB15xlmxlR-88">
          <mxGeometry relative="1" as="geometry" />
        </mxCell>
        <mxCell id="zZjKnL9pvnuB15xlmxlR-86" value="NO" style="edgeLabel;html=1;align=center;verticalAlign=middle;resizable=0;points=[];fontSize=12;" connectable="0" vertex="1" parent="zZjKnL9pvnuB15xlmxlR-85">
          <mxGeometry x="-0.4802" y="1" relative="1" as="geometry">
            <mxPoint x="7" as="offset" />
          </mxGeometry>
        </mxCell>
        <mxCell id="zZjKnL9pvnuB15xlmxlR-87" value="¿Desea actualizar disponibilidad?" style="rhombus;whiteSpace=wrap;html=1;rounded=0;" vertex="1" parent="zZjKnL9pvnuB15xlmxlR-71">
          <mxGeometry x="1887" y="44" width="121" height="74" as="geometry" />
        </mxCell>
        <mxCell id="zZjKnL9pvnuB15xlmxlR-88" value="Cancelación" style="ellipse;whiteSpace=wrap;html=1;rounded=0;fillColor=#f8cecc;strokeColor=#b85450;" vertex="1" parent="zZjKnL9pvnuB15xlmxlR-71">
          <mxGeometry x="2061" y="51" width="71" height="59" as="geometry" />
        </mxCell>
        <mxCell id="NZS-lYJot6zdgNeuY0w6-6" value="" style="edgeStyle=orthogonalEdgeStyle;rounded=0;orthogonalLoop=1;jettySize=auto;html=1;" edge="1" parent="zZjKnL9pvnuB15xlmxlR-71" source="WdUvXObsMQRMVssSKbXX-4" target="NZS-lYJot6zdgNeuY0w6-5">
          <mxGeometry relative="1" as="geometry" />
        </mxCell>
        <mxCell id="MgPQUSc8Zjk0BDQGav4X-1" value="No" style="edgeLabel;html=1;align=center;verticalAlign=middle;resizable=0;points=[];" connectable="0" vertex="1" parent="NZS-lYJot6zdgNeuY0w6-6">
          <mxGeometry x="-0.0437" y="1" relative="1" as="geometry">
            <mxPoint as="offset" />
          </mxGeometry>
        </mxCell>
        <mxCell id="WdUvXObsMQRMVssSKbXX-4" value="¿Cumple con los requisitos?" style="rhombus;whiteSpace=wrap;html=1;" vertex="1" parent="zZjKnL9pvnuB15xlmxlR-71">
          <mxGeometry x="50" y="110" width="80" height="80" as="geometry" />
        </mxCell>
        <mxCell id="NZS-lYJot6zdgNeuY0w6-5" value="&lt;font style=&quot;color: light-dark(rgb(0, 0, 0), rgb(255, 255, 255));&quot;&gt;Fin&lt;/font&gt;" style="ellipse;whiteSpace=wrap;html=1;fillColor=#f8cecc;strokeColor=#b85450;" vertex="1" parent="zZjKnL9pvnuB15xlmxlR-71">
          <mxGeometry x="50" y="-50" width="80" height="80" as="geometry" />
        </mxCell>
        <mxCell id="zZjKnL9pvnuB15xlmxlR-89" value="Donante" style="swimlane;startSize=20;horizontal=0;html=1;strokeWidth=3;strokeColor=#3399FF;" vertex="1" parent="zZjKnL9pvnuB15xlmxlR-2">
          <mxGeometry y="907.48" width="2330" height="226.52419354838707" as="geometry" />
        </mxCell>
        <mxCell id="zZjKnL9pvnuB15xlmxlR-90" value="Seleccionar registro a donante" style="rounded=0;whiteSpace=wrap;html=1;" vertex="1" parent="zZjKnL9pvnuB15xlmxlR-89">
          <mxGeometry x="595" y="70.7683870967742" width="100" height="50" as="geometry" />
        </mxCell>
        <mxCell id="zZjKnL9pvnuB15xlmxlR-94" value="Ciudadano" style="swimlane;startSize=20;horizontal=0;html=1;strokeWidth=3;strokeColor=#3399FF;" vertex="1" parent="zZjKnL9pvnuB15xlmxlR-2">
          <mxGeometry y="1134.004193548387" width="2330" height="290.32" as="geometry" />
        </mxCell>
        <mxCell id="zZjKnL9pvnuB15xlmxlR-95" value="" style="edgeStyle=orthogonalEdgeStyle;rounded=0;orthogonalLoop=1;jettySize=auto;html=1;" edge="1" parent="zZjKnL9pvnuB15xlmxlR-94" source="zZjKnL9pvnuB15xlmxlR-97" target="zZjKnL9pvnuB15xlmxlR-98">
          <mxGeometry relative="1" as="geometry">
            <Array as="points">
              <mxPoint x="310" y="246" />
            </Array>
          </mxGeometry>
        </mxCell>
        <mxCell id="zZjKnL9pvnuB15xlmxlR-129" value="" style="edgeStyle=orthogonalEdgeStyle;rounded=0;orthogonalLoop=1;jettySize=auto;html=1;" edge="1" parent="zZjKnL9pvnuB15xlmxlR-94" source="zZjKnL9pvnuB15xlmxlR-97">
          <mxGeometry relative="1" as="geometry">
            <mxPoint x="190" y="131" as="targetPoint" />
          </mxGeometry>
        </mxCell>
        <mxCell id="WdUvXObsMQRMVssSKbXX-2" style="edgeStyle=orthogonalEdgeStyle;rounded=0;orthogonalLoop=1;jettySize=auto;html=1;entryX=0.5;entryY=1;entryDx=0;entryDy=0;" edge="1" parent="zZjKnL9pvnuB15xlmxlR-94" source="zZjKnL9pvnuB15xlmxlR-97" target="zZjKnL9pvnuB15xlmxlR-106">
          <mxGeometry relative="1" as="geometry" />
        </mxCell>
        <mxCell id="WdUvXObsMQRMVssSKbXX-3" style="edgeStyle=orthogonalEdgeStyle;rounded=0;orthogonalLoop=1;jettySize=auto;html=1;entryX=0.5;entryY=1;entryDx=0;entryDy=0;" edge="1" parent="zZjKnL9pvnuB15xlmxlR-94" source="zZjKnL9pvnuB15xlmxlR-97" target="zZjKnL9pvnuB15xlmxlR-72">
          <mxGeometry relative="1" as="geometry">
            <mxPoint x="90" y="121" as="targetPoint" />
          </mxGeometry>
        </mxCell>
        <mxCell id="zZjKnL9pvnuB15xlmxlR-97" value="El ciudadano identifica la fundación" style="rounded=0;whiteSpace=wrap;html=1;" vertex="1" parent="zZjKnL9pvnuB15xlmxlR-94">
          <mxGeometry x="40" y="221" width="100" height="50.08" as="geometry" />
        </mxCell>
        <mxCell id="zZjKnL9pvnuB15xlmxlR-98" value="Contacta a la fundación para mas información" style="whiteSpace=wrap;html=1;rounded=0;" vertex="1" parent="zZjKnL9pvnuB15xlmxlR-94">
          <mxGeometry x="250" y="141" width="120" height="60" as="geometry" />
        </mxCell>
        <mxCell id="zZjKnL9pvnuB15xlmxlR-104" value="Informa que tipo de donacion hara" style="whiteSpace=wrap;html=1;rounded=0;" vertex="1" parent="zZjKnL9pvnuB15xlmxlR-94">
          <mxGeometry x="390" y="71.61000000000001" width="120" height="60" as="geometry" />
        </mxCell>
        <mxCell id="zZjKnL9pvnuB15xlmxlR-105" value="" style="edgeStyle=orthogonalEdgeStyle;rounded=0;orthogonalLoop=1;jettySize=auto;html=1;exitX=1;exitY=0.5;exitDx=0;exitDy=0;" edge="1" parent="zZjKnL9pvnuB15xlmxlR-94" source="zZjKnL9pvnuB15xlmxlR-98" target="zZjKnL9pvnuB15xlmxlR-104">
          <mxGeometry relative="1" as="geometry" />
        </mxCell>
        <mxCell id="zZjKnL9pvnuB15xlmxlR-106" value="Consultar animal disponible en adopción" style="rounded=0;whiteSpace=wrap;html=1;" vertex="1" parent="zZjKnL9pvnuB15xlmxlR-94">
          <mxGeometry x="595" y="78.6483870967741" width="100" height="50" as="geometry" />
        </mxCell>
        <mxCell id="Ku-pCcjzep2DTlJQF326-1" value="Reportar una alerta&amp;nbsp;&lt;div&gt;(foto + direccion)&lt;/div&gt;" style="rounded=0;whiteSpace=wrap;html=1;" vertex="1" parent="zZjKnL9pvnuB15xlmxlR-94">
          <mxGeometry x="135" y="73.65" width="120" height="60" as="geometry" />
        </mxCell>
        <mxCell id="zZjKnL9pvnuB15xlmxlR-72" value="Solicitar registro a voluntario" style="rounded=0;whiteSpace=wrap;html=1;" vertex="1" parent="zZjKnL9pvnuB15xlmxlR-94">
          <mxGeometry x="30" y="11" width="120" height="50" as="geometry" />
        </mxCell>
        <mxCell id="zZjKnL9pvnuB15xlmxlR-113" style="edgeStyle=orthogonalEdgeStyle;rounded=0;orthogonalLoop=1;jettySize=auto;html=1;exitX=1;exitY=0.5;exitDx=0;exitDy=0;entryX=0.5;entryY=1;entryDx=0;entryDy=0;fontSize=12;startSize=8;endSize=8;" edge="1" parent="zZjKnL9pvnuB15xlmxlR-2" source="zZjKnL9pvnuB15xlmxlR-106" target="zZjKnL9pvnuB15xlmxlR-39">
          <mxGeometry relative="1" as="geometry" />
        </mxCell>
        <mxCell id="WdUvXObsMQRMVssSKbXX-7" style="edgeStyle=orthogonalEdgeStyle;rounded=0;orthogonalLoop=1;jettySize=auto;html=1;" edge="1" parent="zZjKnL9pvnuB15xlmxlR-2" source="zZjKnL9pvnuB15xlmxlR-72" target="WdUvXObsMQRMVssSKbXX-4">
          <mxGeometry relative="1" as="geometry" />
        </mxCell>
        <mxCell id="zZjKnL9pvnuB15xlmxlR-82" style="edgeStyle=orthogonalEdgeStyle;rounded=0;orthogonalLoop=1;jettySize=auto;html=1;exitX=0.5;exitY=1;exitDx=0;exitDy=0;entryX=0.5;entryY=0;entryDx=0;entryDy=0;fontSize=12;startSize=8;endSize=8;" edge="1" parent="zZjKnL9pvnuB15xlmxlR-2" source="zZjKnL9pvnuB15xlmxlR-74" target="zZjKnL9pvnuB15xlmxlR-79">
          <mxGeometry relative="1" as="geometry">
            <mxPoint x="1671" y="585.25" as="sourcePoint" />
            <Array as="points">
              <mxPoint x="1659" y="641.25" />
              <mxPoint x="1752" y="641.25" />
            </Array>
          </mxGeometry>
        </mxCell>
        <mxCell id="zZjKnL9pvnuB15xlmxlR-83" style="rounded=0;orthogonalLoop=1;jettySize=auto;html=1;exitX=0.5;exitY=0;exitDx=0;exitDy=0;entryX=1;entryY=0.5;entryDx=0;entryDy=0;fontSize=12;startSize=8;endSize=8;edgeStyle=orthogonalEdgeStyle;" edge="1" parent="zZjKnL9pvnuB15xlmxlR-2" source="zZjKnL9pvnuB15xlmxlR-87" target="zZjKnL9pvnuB15xlmxlR-74">
          <mxGeometry relative="1" as="geometry">
            <mxPoint x="1718" y="525.25" as="targetPoint" />
            <Array as="points">
              <mxPoint x="1948" y="555.25" />
            </Array>
          </mxGeometry>
        </mxCell>
        <mxCell id="zZjKnL9pvnuB15xlmxlR-84" value="SI" style="edgeLabel;html=1;align=center;verticalAlign=middle;resizable=0;points=[];fontSize=12;" connectable="0" vertex="1" parent="zZjKnL9pvnuB15xlmxlR-83">
          <mxGeometry x="-0.9126" relative="1" as="geometry">
            <mxPoint as="offset" />
          </mxGeometry>
        </mxCell>
        <mxCell id="WdUvXObsMQRMVssSKbXX-5" style="edgeStyle=orthogonalEdgeStyle;rounded=0;orthogonalLoop=1;jettySize=auto;html=1;entryX=0.642;entryY=0.9;entryDx=0;entryDy=0;entryPerimeter=0;" edge="1" parent="zZjKnL9pvnuB15xlmxlR-2" source="WdUvXObsMQRMVssSKbXX-4" target="zZjKnL9pvnuB15xlmxlR-74">
          <mxGeometry relative="1" as="geometry">
            <mxPoint x="90" y="755" as="targetPoint" />
          </mxGeometry>
        </mxCell>
        <mxCell id="WdUvXObsMQRMVssSKbXX-6" value="SI" style="edgeLabel;html=1;align=center;verticalAlign=middle;resizable=0;points=[];" connectable="0" vertex="1" parent="WdUvXObsMQRMVssSKbXX-5">
          <mxGeometry x="0.3963" relative="1" as="geometry">
            <mxPoint y="-1" as="offset" />
          </mxGeometry>
        </mxCell>
        <mxCell id="5YhJPOjfcCLitvl6mg6s-1" style="edgeStyle=orthogonalEdgeStyle;rounded=0;orthogonalLoop=1;jettySize=auto;html=1;entryX=0;entryY=0.5;entryDx=0;entryDy=0;" edge="1" parent="zZjKnL9pvnuB15xlmxlR-2" source="zZjKnL9pvnuB15xlmxlR-104" target="zZjKnL9pvnuB15xlmxlR-90">
          <mxGeometry relative="1" as="geometry" />
        </mxCell>
        <mxCell id="D3P4M6t5pNAXnAXXQ5fS-1" style="edgeStyle=orthogonalEdgeStyle;rounded=0;orthogonalLoop=1;jettySize=auto;html=1;" edge="1" parent="zZjKnL9pvnuB15xlmxlR-2" source="Ku-pCcjzep2DTlJQF326-1" target="zZjKnL9pvnuB15xlmxlR-32">
          <mxGeometry relative="1" as="geometry">
            <mxPoint x="195" y="625" as="targetPoint" />
            <Array as="points">
              <mxPoint x="195" y="864" />
              <mxPoint x="196" y="864" />
            </Array>
          </mxGeometry>
        </mxCell>
        <mxCell id="NZS-lYJot6zdgNeuY0w6-3" value="" style="ellipse;whiteSpace=wrap;html=1;" vertex="1" parent="zZjKnL9pvnuB15xlmxlR-1">
          <mxGeometry x="5" y="1300" width="80" height="80" as="geometry" />
        </mxCell>
      </root>
    </mxGraphModel>
  </diagram>
</mxfile>
